<svg width="25" height="24" viewBox="0 0 25 24" fill="none" xmlns="http://www.w3.org/2000/svg">
<g clip-path="url(#clip0_1393_11153)">
<path d="M3.10436 20.4081H21.0426C22.8118 20.4081 23.8496 19.3835 23.8496 17.3538V6.47625C23.8496 4.44657 22.8019 3.42188 20.7461 3.42188H2.80786C1.03873 3.42188 0.000976562 4.44657 0.000976562 6.47625V17.3538C0.000976562 19.3835 1.04862 20.4081 3.10436 20.4081ZM3.04505 18.9007C2.0666 18.9007 1.51313 18.3588 1.51313 17.3439V6.46639C1.51313 5.46141 2.0666 4.92936 3.04505 4.92936H20.7956C21.7741 4.92936 22.3374 5.46141 22.3374 6.47625V17.3538C22.3374 18.3588 21.7741 18.9007 20.7956 18.9007H3.04505ZM11.9203 14.5063C12.5528 14.5063 13.1656 14.2698 13.729 13.7575L23.0292 5.41214L22.0014 4.3776L12.8691 12.585C12.5627 12.8609 12.2465 12.989 11.9203 12.989C11.5942 12.989 11.2779 12.8609 10.9715 12.585L1.83929 4.3776L0.811412 5.41214L10.1117 13.7575C10.675 14.2698 11.2877 14.5063 11.9203 14.5063ZM1.98753 19.147L9.00472 12.1416L7.97685 11.1169L0.959663 18.1124L1.98753 19.147ZM21.8728 19.1568L22.9008 18.1223L15.8737 11.1169L14.8359 12.1416L21.8728 19.1568Z" fill="#0E0D17"/>
</g>
<defs>
<clipPath id="clip0_1393_11153">
<rect width="24.2143" height="16.9961" fill="white" transform="translate(-0.000976562 3.42578)"/>
</clipPath>
</defs>
</svg>
