<svg width="24" height="24" viewBox="0 0 24 24" fill="none" xmlns="http://www.w3.org/2000/svg">
<g clip-path="url(#clip0_1393_11154)">
<path d="M16.52 22.2498C18.3233 22.2498 19.5083 21.7655 20.5491 20.5908C20.6315 20.5083 20.714 20.4156 20.7861 20.3332C21.4044 19.6428 21.693 18.9627 21.693 18.3134C21.693 17.5715 21.2601 16.8811 20.3431 16.2422L17.3444 14.1607C16.4272 13.5218 15.335 13.4496 14.4694 14.305L13.6759 15.0984C13.4389 15.3355 13.2329 15.3457 13.0061 15.2015C12.4497 14.8511 11.3265 13.8721 10.564 13.1097C9.76019 12.3162 8.98735 11.43 8.57516 10.7808C8.4412 10.5438 8.4515 10.348 8.68851 10.111L9.47166 9.31754C10.3372 8.45195 10.2651 7.35966 9.62623 6.44255L7.5447 3.44391C6.90581 2.5268 6.2154 2.10431 5.47347 2.09401C4.82428 2.0837 4.14417 2.38254 3.45377 3.00081C3.36103 3.08325 3.27859 3.15539 3.19616 3.22752C2.02143 4.27858 1.53711 5.46362 1.53711 7.24631C1.53711 10.1934 3.35072 13.7794 6.67911 17.1078C9.98689 20.4156 13.5832 22.2498 16.52 22.2498ZM16.5303 20.6629C13.9027 20.7144 10.533 18.6947 7.86414 16.0361C5.17464 13.357 3.06219 9.87399 3.11371 7.24631C3.13432 6.1128 3.5362 5.13387 4.33996 4.43315C4.4121 4.37133 4.46362 4.3198 4.53575 4.26829C4.84489 4.00036 5.17464 3.8561 5.47347 3.8561C5.7723 3.8561 6.04023 3.96944 6.23601 4.27858L8.23511 7.27723C8.4515 7.59667 8.47212 7.95733 8.15267 8.27677L7.24587 9.18358C6.53485 9.8946 6.58637 10.7602 7.1016 11.4506C7.68896 12.2441 8.70912 13.3981 9.50258 14.1813C10.2857 14.9748 11.5326 16.0876 12.3364 16.6854C13.0268 17.2005 13.8924 17.2521 14.6033 16.541L15.5102 15.6343C15.8296 15.3148 16.18 15.3355 16.5098 15.5416L19.5083 17.5406C19.8072 17.7467 19.9308 18.0044 19.9308 18.3134C19.9308 18.6123 19.7866 18.942 19.5186 19.2512C19.4568 19.3234 19.4157 19.3749 19.3538 19.4469C18.6531 20.2508 17.6742 20.6424 16.5303 20.6629Z" fill="#0E0D17"/>
</g>
<defs>
<clipPath id="clip0_1393_11154">
<rect width="20.5371" height="20.2074" fill="white" transform="translate(1.53711 2.04688)"/>
</clipPath>
</defs>
</svg>
