<svg width="240" height="30" viewBox="0 0 240 30" fill="none" xmlns="http://www.w3.org/2000/svg">
<path d="M16.192 4.288L16.48 2.784H25.696L25.376 4.288L22.752 4.576L20.96 14.08C20.704 15.424 20.4587 16.7787 20.224 18.144C19.9893 19.488 19.7547 20.832 19.52 22.176L22.24 22.496L21.952 24H12.736L13.056 22.496L15.68 22.208L17.248 13.952H8.48L8.448 14.08C8.192 15.424 7.94667 16.7787 7.712 18.144C7.47733 19.488 7.24267 20.832 7.008 22.176L9.728 22.496L9.44 24H0.224L0.544 22.496L3.168 22.208L4.96 12.704C5.216 11.36 5.46133 10.016 5.696 8.672C5.952 7.30667 6.18667 5.952 6.4 4.608L3.68 4.288L3.968 2.784H13.184L12.864 4.288L10.24 4.576L8.8 12.288H17.536C17.7707 11.008 18.0053 9.728 18.24 8.448C18.4747 7.168 18.6987 5.888 18.912 4.608L16.192 4.288ZM26.3505 22.56C26.3505 22.24 26.3825 21.8453 26.4465 21.376C26.5318 20.9067 26.6278 20.3947 26.7345 19.84L28.5265 11.296L25.8385 11.008L25.9985 9.92L32.0785 8.192L32.5585 8.576L30.2225 19.616C30.0518 20.3413 29.9665 20.8747 29.9665 21.216C29.9665 21.4293 30.0305 21.6 30.1585 21.728C30.2865 21.8347 30.4252 21.888 30.5745 21.888C31.1932 21.888 32.0892 21.1733 33.2625 19.744L34.1585 20.384C33.7105 21.0453 33.1985 21.696 32.6225 22.336C32.0465 22.9547 31.4172 23.4667 30.7345 23.872C30.0518 24.256 29.2838 24.448 28.4305 24.448C27.8332 24.448 27.3318 24.288 26.9265 23.968C26.5425 23.648 26.3505 23.1787 26.3505 22.56ZM31.5985 4.544C31.0438 4.544 30.5638 4.36267 30.1585 4C29.7532 3.616 29.5505 3.104 29.5505 2.464C29.5505 1.80267 29.7852 1.248 30.2545 0.799999C30.7452 0.330666 31.2892 0.0959988 31.8865 0.0959988C32.4838 0.0959988 32.9638 0.287999 33.3265 0.671999C33.7105 1.056 33.9025 1.55733 33.9025 2.176C33.9025 2.816 33.6678 3.37067 33.1985 3.84C32.7505 4.30933 32.2172 4.544 31.5985 4.544ZM34.058 29.152L33.642 28.032C35.306 27.3707 36.618 26.2827 37.578 24.768L36.65 23.936C36.3087 23.7013 36.0527 23.392 35.882 23.008C35.7327 22.624 35.658 22.2507 35.658 21.888C35.658 21.312 35.8607 20.7893 36.266 20.32C36.6713 19.8293 37.2687 19.584 38.058 19.584C38.762 19.584 39.3913 19.7973 39.946 20.224C40.0527 20.4373 40.1273 20.6507 40.17 20.864C40.234 21.056 40.266 21.2907 40.266 21.568C40.266 22.6987 39.9993 23.7653 39.466 24.768C38.954 25.792 38.2287 26.6773 37.29 27.424C36.3727 28.192 35.2953 28.768 34.058 29.152ZM53.9075 4.288L54.1955 2.784H63.4115L63.0915 4.288L60.4675 4.576L58.6755 14.08C58.4195 15.424 58.1742 16.7787 57.9395 18.144C57.7048 19.488 57.4702 20.832 57.2355 22.176L59.9235 22.496L59.6355 24H50.4515L50.7395 22.496L53.3955 22.208L55.1875 12.704C55.4435 11.36 55.6888 10.016 55.9235 8.672C56.1582 7.30667 56.3928 5.952 56.6275 4.608L53.9075 4.288ZM67.1712 0.991999C67.5766 0.991999 67.9179 1.06667 68.1952 1.216C68.4939 1.36533 68.7712 1.568 69.0272 1.824C69.0912 2.016 69.1446 2.22933 69.1873 2.464C69.2299 2.69866 69.2512 2.944 69.2512 3.2C69.2512 4.69333 68.7712 6.02667 67.8112 7.2C66.8512 8.352 65.6459 9.42933 64.1952 10.432L63.4272 9.472C64.1099 8.91733 64.6966 8.384 65.1872 7.872C65.6779 7.33867 66.1472 6.74133 66.5952 6.08L65.8272 5.184C65.5926 4.88533 65.3899 4.576 65.2192 4.256C65.0699 3.936 64.9952 3.60533 64.9952 3.264C64.9952 2.56 65.2086 2.00533 65.6352 1.6C66.0832 1.19467 66.5952 0.991999 67.1712 0.991999ZM71.253 24L68.117 24.256L67.733 23.936L70.389 11.296L67.701 11.008L67.861 9.92L73.845 8.192L74.357 8.608L73.749 11.648C74.8157 10.6453 75.925 9.824 77.077 9.184C78.229 8.544 79.2957 8.224 80.277 8.224C80.9597 8.224 81.5037 8.42667 81.909 8.832C82.3143 9.23733 82.517 9.84533 82.517 10.656C82.517 10.976 82.485 11.3173 82.421 11.68C83.4877 10.6773 84.565 9.856 85.653 9.216C86.7623 8.55467 87.797 8.224 88.757 8.224C89.4397 8.224 89.9837 8.42667 90.389 8.832C90.7943 9.23733 90.997 9.84533 90.997 10.656C90.997 11.1253 90.9437 11.616 90.837 12.128C90.7517 12.6187 90.645 13.12 90.517 13.632L89.045 19.616C88.9597 19.9787 88.8743 20.2987 88.789 20.576C88.725 20.8533 88.693 21.0773 88.693 21.248C88.693 21.6747 88.885 21.888 89.269 21.888C89.9517 21.888 90.869 21.1733 92.021 19.744L92.917 20.384C92.469 21.0667 91.9463 21.7173 91.349 22.336C90.7517 22.9547 90.0903 23.4667 89.365 23.872C88.661 24.256 87.893 24.448 87.061 24.448C86.421 24.448 85.9197 24.2987 85.557 24C85.2157 23.7013 85.045 23.2853 85.045 22.752C85.045 22.3253 85.0983 21.8987 85.205 21.472C85.3117 21.0453 85.429 20.544 85.557 19.968L86.837 14.752C86.965 14.24 87.0717 13.76 87.157 13.312C87.2637 12.8427 87.317 12.4587 87.317 12.16C87.317 11.328 86.9863 10.912 86.325 10.912C85.3437 10.912 83.9357 11.7013 82.101 13.28L81.269 17.216C81.0343 18.3467 80.8103 19.4773 80.597 20.608C80.3837 21.7173 80.1597 22.848 79.925 24L76.821 24.256L76.437 23.936L78.549 13.952C78.613 13.6107 78.677 13.28 78.741 12.96C78.805 12.64 78.837 12.352 78.837 12.096C78.837 11.3067 78.517 10.912 77.877 10.912C77.3437 10.912 76.7037 11.1147 75.957 11.52C75.2103 11.904 74.357 12.5013 73.397 13.312L72.565 17.216C72.3303 18.3467 72.1063 19.4773 71.893 20.608C71.6797 21.7173 71.4663 22.848 71.253 24ZM103.107 4.288L103.395 2.784H118.947L118.051 8.384H115.971L116.003 4.48H109.699L108.227 12.288H112.483L113.443 9.472H115.011L113.635 17.024H112.067L112.163 13.984H107.907L107.875 14.08C107.363 16.768 106.883 19.456 106.435 22.144L109.411 22.496L109.123 24H99.6515L99.9395 22.496L102.595 22.208L104.387 12.704C104.643 11.36 104.889 10.016 105.123 8.672C105.358 7.30667 105.593 5.952 105.827 4.608L103.107 4.288ZM125.578 9.792C125.108 9.792 124.596 9.984 124.042 10.368C123.508 10.752 122.996 11.2747 122.506 11.936C122.015 12.5973 121.599 13.3653 121.258 14.24C120.916 15.1147 120.714 16.032 120.65 16.992C122.271 16.48 123.54 15.9147 124.458 15.296C125.396 14.6773 126.068 14.0373 126.474 13.376C126.879 12.7147 127.082 12.096 127.082 11.52C127.082 10.9653 126.932 10.5387 126.634 10.24C126.356 9.94133 126.004 9.792 125.578 9.792ZM122.474 24.448C120.938 24.448 119.679 23.936 118.698 22.912C117.738 21.888 117.258 20.4053 117.258 18.464C117.258 17.12 117.482 15.84 117.93 14.624C118.399 13.3867 119.039 12.288 119.85 11.328C120.682 10.368 121.631 9.61067 122.698 9.056C123.786 8.50133 124.948 8.224 126.186 8.224C127.402 8.224 128.34 8.512 129.002 9.088C129.663 9.64267 129.994 10.4213 129.994 11.424C129.994 12.2133 129.684 13.024 129.066 13.856C128.447 14.688 127.455 15.488 126.09 16.256C124.724 17.0027 122.911 17.6853 120.65 18.304C120.756 19.4773 121.087 20.3413 121.642 20.896C122.196 21.4293 122.932 21.696 123.85 21.696C124.831 21.696 125.684 21.4613 126.41 20.992C127.135 20.5013 127.732 19.9573 128.202 19.36L129.002 19.968C128.575 20.736 128.031 21.4613 127.37 22.144C126.73 22.8267 125.994 23.3813 125.162 23.808C124.351 24.2347 123.455 24.448 122.474 24.448ZM131.433 23.936L134.089 11.296L131.401 11.008L131.561 9.92L137.257 8.192L137.769 8.608L137.001 13.152C137.492 12.256 138.004 11.4347 138.537 10.688C139.092 9.94133 139.668 9.344 140.265 8.896C140.862 8.448 141.46 8.224 142.057 8.224C142.569 8.224 143.028 8.33067 143.433 8.544C143.86 8.75733 144.18 9.07733 144.393 9.504C144.372 10.144 144.201 10.6773 143.881 11.104C143.561 11.5307 143.092 11.744 142.473 11.744C142.11 11.744 141.748 11.648 141.385 11.456C141.044 11.264 140.692 10.9973 140.329 10.656C139.497 11.4453 138.772 12.3093 138.153 13.248C137.534 14.1867 136.98 15.168 136.489 16.192L136.265 17.216C136.03 18.3467 135.806 19.4773 135.593 20.608C135.38 21.7173 135.166 22.848 134.953 24L131.817 24.256L131.433 23.936ZM146.2 18.752C146.2 19.7973 146.382 20.5547 146.744 21.024C147.107 21.472 147.566 21.696 148.12 21.696C148.632 21.696 149.187 21.504 149.784 21.12C150.403 20.7147 151.107 20.0853 151.896 19.232L153.56 11.072C153.006 10.6667 152.387 10.464 151.704 10.464C151.171 10.464 150.627 10.6027 150.072 10.88C149.539 11.1573 149.07 11.52 148.664 11.968C148.174 12.4587 147.736 13.088 147.352 13.856C146.99 14.624 146.702 15.4347 146.488 16.288C146.296 17.1413 146.2 17.9627 146.2 18.752ZM155.224 19.584C155.139 19.968 155.075 20.2987 155.032 20.576C154.99 20.832 154.968 21.0453 154.968 21.216C154.968 21.4293 155.032 21.6 155.16 21.728C155.288 21.8347 155.438 21.888 155.608 21.888C155.95 21.888 156.366 21.696 156.856 21.312C157.347 20.928 157.848 20.4053 158.36 19.744L159.224 20.384C158.819 21.0667 158.318 21.7173 157.72 22.336C157.123 22.9547 156.472 23.4667 155.768 23.872C155.086 24.256 154.36 24.448 153.592 24.448C152.952 24.448 152.44 24.256 152.056 23.872C151.672 23.488 151.48 22.9653 151.48 22.304C151.48 21.9413 151.512 21.472 151.576 20.896C150.68 21.9413 149.71 22.7947 148.664 23.456C147.64 24.1173 146.68 24.448 145.784 24.448C144.974 24.448 144.248 24.128 143.608 23.488C142.99 22.8267 142.68 21.7173 142.68 20.16C142.68 19.072 142.883 17.9733 143.288 16.864C143.694 15.7333 144.248 14.656 144.952 13.632C145.656 12.5867 146.446 11.6587 147.32 10.848C148.216 10.0373 149.134 9.39733 150.072 8.928C151.032 8.45867 151.971 8.224 152.888 8.224C153.358 8.224 153.816 8.32 154.264 8.512L155.192 3.744L152.376 3.424L152.536 2.336L158.648 0.639999L159.096 0.959999L155.224 19.584ZM160.995 22.56C160.995 22.24 161.027 21.8453 161.091 21.376C161.177 20.9067 161.273 20.3947 161.379 19.84L163.171 11.296L160.483 11.008L160.643 9.92L166.723 8.192L167.203 8.576L164.867 19.616C164.697 20.3413 164.611 20.8747 164.611 21.216C164.611 21.4293 164.675 21.6 164.803 21.728C164.931 21.8347 165.07 21.888 165.219 21.888C165.838 21.888 166.734 21.1733 167.907 19.744L168.803 20.384C168.355 21.0453 167.843 21.696 167.267 22.336C166.691 22.9547 166.062 23.4667 165.379 23.872C164.697 24.256 163.929 24.448 163.075 24.448C162.478 24.448 161.977 24.288 161.571 23.968C161.187 23.648 160.995 23.1787 160.995 22.56ZM166.243 4.544C165.689 4.544 165.209 4.36267 164.803 4C164.398 3.616 164.195 3.104 164.195 2.464C164.195 1.80267 164.43 1.248 164.899 0.799999C165.39 0.330666 165.934 0.0959988 166.531 0.0959988C167.129 0.0959988 167.609 0.287999 167.971 0.671999C168.355 1.056 168.547 1.55733 168.547 2.176C168.547 2.816 168.313 3.37067 167.843 3.84C167.395 4.30933 166.862 4.544 166.243 4.544ZM173.764 24L170.628 24.256L170.244 23.936L172.9 11.296L170.212 11.008L170.372 9.92L176.356 8.192L176.868 8.608L176.228 11.744C177.295 10.72 178.415 9.87733 179.588 9.216C180.762 8.55467 181.85 8.224 182.852 8.224C183.535 8.224 184.079 8.42667 184.484 8.832C184.89 9.23733 185.092 9.84533 185.092 10.656C185.092 11.1253 185.039 11.616 184.932 12.128C184.847 12.6187 184.74 13.12 184.612 13.632L183.14 19.616C183.055 19.9787 182.97 20.2987 182.884 20.576C182.82 20.8533 182.788 21.0773 182.788 21.248C182.788 21.6747 182.98 21.888 183.364 21.888C184.068 21.888 184.986 21.1733 186.116 19.744L186.98 20.384C186.575 21.0453 186.063 21.696 185.444 22.336C184.847 22.9547 184.186 23.4667 183.46 23.872C182.735 24.256 181.956 24.448 181.124 24.448C180.506 24.448 180.015 24.2987 179.652 24C179.311 23.7013 179.14 23.2853 179.14 22.752C179.14 22.3253 179.183 21.8987 179.268 21.472C179.375 21.0453 179.503 20.544 179.652 19.968L180.932 14.752C181.06 14.24 181.167 13.76 181.252 13.312C181.359 12.8427 181.412 12.4587 181.412 12.16C181.412 11.328 181.082 10.912 180.42 10.912C179.908 10.912 179.268 11.1147 178.5 11.52C177.732 11.9253 176.868 12.544 175.908 13.376L175.076 17.216C174.842 18.3467 174.618 19.4773 174.404 20.608C174.191 21.7173 173.978 22.848 173.764 24ZM191.449 18.848C191.449 19.8293 191.609 20.5547 191.929 21.024C192.27 21.472 192.718 21.696 193.273 21.696C193.764 21.696 194.308 21.5147 194.905 21.152C195.502 20.768 196.196 20.16 196.985 19.328L198.777 10.976C198.5 10.8267 198.201 10.7093 197.881 10.624C197.582 10.5173 197.273 10.464 196.953 10.464C196.057 10.464 195.097 10.9547 194.073 11.936C193.582 12.4267 193.134 13.056 192.729 13.824C192.324 14.5707 192.004 15.3813 191.769 16.256C191.556 17.1307 191.449 17.9947 191.449 18.848ZM198.777 24.448C198.158 24.448 197.646 24.256 197.241 23.872C196.836 23.4667 196.633 22.8693 196.633 22.08C196.633 21.888 196.633 21.7067 196.633 21.536C196.654 21.344 196.676 21.1627 196.697 20.992C195.801 22.016 194.862 22.848 193.881 23.488C192.9 24.128 191.972 24.448 191.097 24.448C190.286 24.448 189.55 24.1387 188.889 23.52C188.228 22.88 187.897 21.824 187.897 20.352C187.897 19.2213 188.11 18.08 188.537 16.928C188.964 15.776 189.54 14.688 190.265 13.664C190.99 12.6187 191.801 11.6907 192.697 10.88C193.593 10.048 194.521 9.39733 195.481 8.928C196.441 8.45867 197.358 8.224 198.233 8.224C198.66 8.224 199.044 8.30933 199.385 8.48C199.726 8.62933 200.057 8.85333 200.377 9.152L202.329 8.032L202.873 8.384L200.313 19.616C200.142 20.3413 200.057 20.8747 200.057 21.216C200.057 21.664 200.281 21.888 200.729 21.888C201.092 21.888 201.497 21.696 201.945 21.312C202.414 20.9067 202.916 20.3733 203.449 19.712L204.313 20.352C203.908 20.992 203.417 21.632 202.841 22.272C202.265 22.8907 201.636 23.4133 200.953 23.84C200.27 24.2453 199.545 24.448 198.777 24.448ZM209.222 24L206.086 24.256L205.702 23.936L208.358 11.296L205.67 11.008L205.83 9.92L211.814 8.192L212.326 8.608L211.686 11.744C212.752 10.72 213.872 9.87733 215.046 9.216C216.219 8.55467 217.307 8.224 218.31 8.224C218.992 8.224 219.536 8.42667 219.942 8.832C220.347 9.23733 220.55 9.84533 220.55 10.656C220.55 11.1253 220.496 11.616 220.39 12.128C220.304 12.6187 220.198 13.12 220.07 13.632L218.598 19.616C218.512 19.9787 218.427 20.2987 218.342 20.576C218.278 20.8533 218.246 21.0773 218.246 21.248C218.246 21.6747 218.438 21.888 218.822 21.888C219.526 21.888 220.443 21.1733 221.574 19.744L222.438 20.384C222.032 21.0453 221.52 21.696 220.902 22.336C220.304 22.9547 219.643 23.4667 218.918 23.872C218.192 24.256 217.414 24.448 216.582 24.448C215.963 24.448 215.472 24.2987 215.11 24C214.768 23.7013 214.598 23.2853 214.598 22.752C214.598 22.3253 214.64 21.8987 214.726 21.472C214.832 21.0453 214.96 20.544 215.11 19.968L216.39 14.752C216.518 14.24 216.624 13.76 216.71 13.312C216.816 12.8427 216.87 12.4587 216.87 12.16C216.87 11.328 216.539 10.912 215.878 10.912C215.366 10.912 214.726 11.1147 213.958 11.52C213.19 11.9253 212.326 12.544 211.366 13.376L210.534 17.216C210.299 18.3467 210.075 19.4773 209.862 20.608C209.648 21.7173 209.435 22.848 209.222 24ZM226.907 18.752C226.907 19.7973 227.088 20.5547 227.451 21.024C227.813 21.472 228.272 21.696 228.827 21.696C229.339 21.696 229.893 21.504 230.491 21.12C231.109 20.7147 231.813 20.0853 232.603 19.232L234.267 11.072C233.712 10.6667 233.093 10.464 232.411 10.464C231.877 10.464 231.333 10.6027 230.779 10.88C230.245 11.1573 229.776 11.52 229.371 11.968C228.88 12.4587 228.443 13.088 228.059 13.856C227.696 14.624 227.408 15.4347 227.195 16.288C227.003 17.1413 226.907 17.9627 226.907 18.752ZM235.931 19.584C235.845 19.968 235.781 20.2987 235.739 20.576C235.696 20.832 235.675 21.0453 235.675 21.216C235.675 21.4293 235.739 21.6 235.867 21.728C235.995 21.8347 236.144 21.888 236.315 21.888C236.656 21.888 237.072 21.696 237.563 21.312C238.053 20.928 238.555 20.4053 239.067 19.744L239.931 20.384C239.525 21.0667 239.024 21.7173 238.427 22.336C237.829 22.9547 237.179 23.4667 236.475 23.872C235.792 24.256 235.067 24.448 234.299 24.448C233.659 24.448 233.147 24.256 232.763 23.872C232.379 23.488 232.187 22.9653 232.187 22.304C232.187 21.9413 232.219 21.472 232.283 20.896C231.387 21.9413 230.416 22.7947 229.371 23.456C228.347 24.1173 227.387 24.448 226.491 24.448C225.68 24.448 224.955 24.128 224.315 23.488C223.696 22.8267 223.387 21.7173 223.387 20.16C223.387 19.072 223.589 17.9733 223.995 16.864C224.4 15.7333 224.955 14.656 225.659 13.632C226.363 12.5867 227.152 11.6587 228.027 10.848C228.923 10.0373 229.84 9.39733 230.779 8.928C231.739 8.45867 232.677 8.224 233.595 8.224C234.064 8.224 234.523 8.32 234.971 8.512L235.899 3.744L233.083 3.424L233.243 2.336L239.355 0.639999L239.803 0.959999L235.931 19.584Z" fill="#2A2933"/>
</svg>
