<svg width="689" height="824" viewBox="0 0 689 824" fill="none" xmlns="http://www.w3.org/2000/svg">
<path d="M99.094 485.175C99.2534 485.594 99.0584 486.264 99.8359 486.072C100.457 485.918 101.123 485.671 101.601 485.268C102.942 484.135 104.149 482.843 105.496 481.719C107.21 480.288 109.005 478.954 110.776 477.592C111.121 477.326 111.584 476.861 111.878 476.936C114.199 477.53 115.196 475.436 116.805 474.61C117.257 474.379 117.721 473.895 118.14 473.935C118.99 474.017 119.838 474.323 120.629 474.668C120.798 474.742 120.898 475.521 120.728 475.73C119.991 476.638 119.182 477.498 118.326 478.298C115.997 480.475 113.644 482.627 111.275 484.762C108.287 487.454 105.279 490.125 102.27 492.794C100.458 494.402 98.6234 495.983 96.8068 497.585C92.9982 500.943 89.2043 504.317 85.3817 507.659C84.5563 508.381 84.2991 509.175 84.3128 510.288C84.3661 514.619 84.6132 518.943 84.6863 523.272C84.7115 524.768 84.8566 524.799 86.2039 524.028C88.185 522.893 89.6617 521.169 91.3626 519.707C91.9267 519.222 92.4708 518.636 93.1339 518.359C94.9078 517.618 96.3804 516.533 97.6145 515.073C97.8895 514.748 98.2947 514.445 98.6965 514.33C100.078 513.936 101.038 513.012 101.918 511.963C102.422 511.362 102.955 511.077 103.685 511.632C104.166 511.997 104.78 511.848 104.517 511.272C104.044 510.234 104.543 509.685 105.137 509.061C105.569 508.608 105.97 508.118 106.448 507.721C106.608 507.587 106.965 507.689 107.232 507.683C107.227 507.895 107.3 508.154 107.204 508.31C106.877 508.84 106.491 509.333 106.128 509.84C106.819 509.47 107.541 509.147 108.194 508.719C109.181 508.072 110.238 507.467 111.046 506.631C111.805 505.847 112.523 505.341 113.638 505.45C113.836 505.469 114.196 505.223 114.258 505.028C114.806 503.309 116.432 502.798 117.764 502.639C120.441 502.32 122.258 500.57 124.407 499.371C125.694 498.653 126.88 498.27 128.403 498.869C129.555 499.322 129.306 499.688 128.653 500.205C127.024 501.496 125.328 502.705 123.703 504.001C121.593 505.684 119.538 507.437 117.435 509.129C114.049 511.853 111.038 515.022 107.362 517.412C106.039 518.272 104.979 519.534 103.788 520.6C101.81 522.372 99.8354 524.148 97.8345 525.894C96.3032 527.23 94.6933 528.479 93.1902 529.845C90.4747 532.314 87.8214 534.851 85.1228 537.338C84.3971 538.007 84.1117 538.728 84.1208 539.759C84.143 542.278 84.0669 544.807 83.8581 547.317C83.5669 550.818 83.3184 554.344 82.6558 557.783C82.3123 559.566 82.4695 561.273 82.4105 563.013C82.3648 564.358 82.7225 565.758 81.7426 566.943C81.6544 567.05 81.5411 567.251 81.5838 567.334C82.9956 570.071 81.0461 572.91 81.8113 575.624C82.4712 577.965 82.2428 580.341 82.4511 582.697C82.6141 584.542 82.0092 586.234 81.5787 587.953C81.4729 588.376 80.8111 588.897 80.3538 588.953C78.2799 589.205 75.8283 587.224 75.4427 585.143C75.2951 584.346 75.2116 583.508 74.8939 582.777C74.1302 581.023 73.7678 579.229 73.8098 577.314C73.8237 576.683 73.4602 576.051 73.3271 575.408C72.8553 573.127 72.2117 570.845 73.146 568.525C72.2904 567.111 73.2311 565.652 73.0361 564.221C72.5981 561.009 73.6024 557.903 73.7348 554.732C74.8471 553.973 73.4561 553.295 73.6623 552.536C73.8739 551.757 73.964 550.943 74.0838 550.141C74.175 549.532 74.2294 548.917 74.3002 548.305C73.7122 548.747 73.0598 549.125 72.5481 549.642C70.9525 551.254 69.3112 552.837 67.8735 554.585C66.2527 556.555 64.0556 557.721 62.0635 559.178C61.8746 559.316 61.4752 559.375 61.285 559.27C59.6207 558.348 57.8538 557.545 56.3672 556.386C54.4346 554.879 54.5097 554.506 56.2095 552.839C57.9098 551.171 59.7004 549.591 61.3462 547.873C62.7115 546.446 63.8718 544.825 65.2215 543.383C66.2052 542.331 67.3761 541.458 68.4165 540.457C70.6298 538.326 72.8196 536.172 74.9977 534.005C75.2456 533.759 75.4831 533.386 75.5115 533.054C75.6658 531.241 75.7942 529.425 75.8544 527.607C75.9613 524.384 76.0199 521.159 76.0778 517.935C76.0844 517.57 75.9575 517.202 75.8925 516.836C75.5194 517.021 75.1022 517.151 74.7816 517.403C73.9528 518.055 73.1257 518.719 72.3703 519.452C68.3315 523.375 64.3148 527.32 60.2909 531.257C60.1887 531.357 60.0837 531.456 59.9942 531.567C59.2793 532.453 58.7397 533.639 57.8209 534.169C55.6701 535.41 54.5651 537.504 53.0684 539.28C52.7393 539.671 52.4422 540.118 52.2501 540.588C51.7752 541.75 50.9317 542.43 49.7553 542.317C47.1424 542.064 45.4738 540.254 43.8117 538.505C43.6311 538.315 43.7964 537.618 43.9991 537.273C44.8557 535.811 45.6143 534.241 46.7225 532.988C50.7357 528.452 54.8057 523.962 58.9946 519.588C61.3668 517.111 63.9091 514.771 66.5582 512.592C71.1187 508.84 75.1224 504.468 79.8528 500.905C81.5571 499.622 82.9868 497.974 84.5506 496.503C87.1605 494.046 89.9615 491.87 93.0257 489.968C95.1714 488.636 97.3602 487.227 99.094 485.175ZM115.101 509.664C115.093 509.809 115.085 509.955 115.078 510.1C115.164 509.953 115.25 509.805 115.57 509.652C115.645 509.494 115.719 509.335 116.028 509.171C116.398 508.942 116.768 508.713 117.138 508.485C117.05 508.393 116.915 508.208 116.882 508.224C116.561 508.388 116.243 508.568 115.954 508.784C115.857 508.856 115.844 509.042 115.558 509.183C115.484 509.341 115.41 509.5 115.101 509.664ZM113.434 481.052C113.426 481.197 113.418 481.343 113.411 481.488C113.497 481.341 113.583 481.193 113.903 481.04C113.911 480.895 113.919 480.749 113.927 480.604C113.841 480.751 113.755 480.899 113.434 481.052ZM108.202 515.476C108.195 515.622 108.187 515.767 108.179 515.912C108.265 515.765 108.351 515.618 108.672 515.464C108.68 515.319 108.687 515.174 108.695 515.029C108.609 515.176 108.523 515.323 108.202 515.476ZM92.5637 528.557C92.5559 528.702 92.5482 528.848 92.5404 528.993C92.6264 528.846 92.7124 528.699 93.0332 528.545C93.041 528.4 93.0488 528.255 93.0565 528.109C92.9705 528.257 92.8845 528.404 92.5637 528.557ZM95.5315 497.478C95.8968 497.255 96.2878 497.063 96.6174 496.795C96.8045 496.643 96.8908 496.367 97.0225 496.147C96.7608 496.183 96.4098 496.125 96.2552 496.272C95.8864 496.625 95.6103 497.074 95.062 497.49C94.8639 497.538 94.6658 497.586 94.4676 497.634C94.5015 497.735 94.5354 497.837 94.5693 497.938C94.8118 497.787 95.0543 497.636 95.5315 497.478ZM91.8475 500.391C92.4683 500.059 93.0955 499.738 93.6999 499.378C93.7598 499.343 93.7405 498.995 93.6538 498.929C93.479 498.796 93.0997 498.632 93.0365 498.7C92.5314 499.236 92.0804 499.824 91.3781 500.403C90.9961 500.775 90.6126 501.146 90.2384 501.527C90.2252 501.54 90.3041 501.645 90.3401 501.707C90.7141 501.403 91.0978 501.111 91.4554 500.789C91.5494 500.704 91.5625 500.53 91.8475 500.391ZM97.6321 524.67C98.9068 523.65 100.086 522.464 101.483 521.658C102.863 520.861 103.322 519.002 105.087 518.725C105.153 518.714 105.255 518.269 105.169 518.132C105.082 517.992 104.758 517.888 104.585 517.937C104.246 518.034 103.893 518.191 103.629 518.42C101.64 520.146 99.6589 521.882 97.7142 523.657C97.4874 523.864 97.4972 524.33 97.1626 524.682C96.4873 525.071 95.7967 525.437 95.146 525.864C94.9542 525.99 94.8755 526.288 94.745 526.507C95.0351 526.538 95.4508 526.707 95.5937 526.577C96.2371 525.99 96.8033 525.318 97.6321 524.67ZM112.813 512.071C113.007 511.797 113.2 511.522 113.393 511.248C113.132 511.272 112.81 511.207 112.622 511.337C112.083 511.711 111.6 512.165 111.09 512.583C110.981 512.672 110.852 512.738 110.732 512.815C110.919 512.893 111.155 513.084 111.286 513.029C111.738 512.836 112.154 512.557 112.813 512.071ZM107.715 487.069C108.081 486.684 108.462 486.311 108.803 485.905C108.892 485.8 108.859 485.591 108.881 485.429C108.518 485.627 108.022 485.74 107.827 486.046C107.588 486.419 106.525 486.51 107.264 487.311C107.298 487.347 107.41 487.312 107.715 487.069ZM102.418 491.197C102.209 491.256 101.95 491.259 101.803 491.389C101.615 491.554 101.518 491.822 101.383 492.045C101.647 492.008 101.936 492.023 102.169 491.916C102.366 491.826 102.498 491.594 102.418 491.197ZM86.7792 504.277C87.0095 504.099 87.2502 503.932 87.458 503.731C87.4861 503.704 87.3486 503.506 87.2878 503.387C87.038 503.607 86.7883 503.828 86.7792 504.277ZM98.734 494.109C98.5263 494.369 98.3185 494.63 98.1108 494.891C98.2327 494.945 98.4375 495.073 98.4633 495.043C98.6538 494.826 98.8086 494.577 98.734 494.109ZM100.347 492.893C100.443 492.954 100.538 493.014 100.634 493.074C100.614 492.934 100.595 492.793 100.347 492.893ZM90.5169 531.193C90.4214 531.133 90.3259 531.072 90.2304 531.012C90.2497 531.153 90.2689 531.293 90.5169 531.193Z" fill="#F08354"/>
<path d="M52.7487 676.796C53.4309 675.818 54.0622 675.026 54.8174 674.38C59.0191 670.783 63.1715 667.121 67.499 663.681C70.571 661.238 73.403 658.553 76.3177 655.944C80.8142 651.92 85.34 647.916 90.0404 644.136C94.1288 640.848 98.0985 637.458 101.847 633.786C103.388 632.275 105.266 631.111 106.948 629.737C107.719 629.108 108.413 628.376 109.084 627.638C109.244 627.462 109.173 627.076 109.209 626.786C108.921 626.82 108.597 626.781 108.351 626.901C106.454 627.824 104.612 628.874 102.675 629.701C99.0119 631.265 95.2989 632.713 91.6016 634.197C87.8313 635.711 84.0781 637.271 80.2713 638.687C78.5018 639.346 76.5342 639.507 74.8163 640.259C72.6565 641.205 70.7276 640.531 68.8345 639.819C64.7977 638.3 61.8067 635.52 60.8088 631.269C60.2452 628.867 61.392 626.495 63.0139 624.653C66.4912 620.705 70.482 617.318 74.7653 614.246C76.1701 613.239 77.159 611.67 78.4484 610.478C80.1207 608.931 81.836 607.414 83.6552 606.048C86.0282 604.265 88.6051 602.775 90.7476 600.662C93.9908 597.465 97.3381 594.373 100.666 591.264C100.902 591.043 101.343 591.042 101.689 590.938C101.541 591.181 101.437 591.471 101.236 591.659C99.9755 592.843 98.6751 593.984 97.425 595.178C96.6422 595.926 95.9226 596.741 95.1807 597.531C95.0843 597.634 95.0251 597.771 94.9486 597.893C95.0925 597.954 95.2493 598.086 95.378 598.063C95.9243 597.964 96.7171 598.003 96.9627 597.661C98.8405 595.054 101.476 593.242 103.819 591.152C105.295 589.836 106.674 588.441 108.099 587.083C109.354 585.887 110.464 585.985 111.769 587.143C112.867 588.118 114.054 588.992 115.126 589.992C115.314 590.166 115.291 590.932 115.092 591.1C112.181 593.547 109.207 595.92 106.285 598.355C105.022 599.407 103.842 600.557 102.627 601.667C98.859 605.108 95.126 608.59 91.3161 611.984C87.5985 615.297 83.7515 618.465 80.0594 621.805C77.5272 624.095 75.1331 626.542 72.7416 628.982C72.03 629.708 71.5363 630.648 70.9427 631.49C72.0654 631.673 73.0512 631.618 74.2222 631.162C78.4557 629.515 82.814 628.192 87.1049 626.689C88.9467 626.044 90.7637 625.312 92.5473 624.52C94.8303 623.505 97.0578 622.366 99.3286 621.323C101.709 620.23 104.102 619.17 106.796 619.074C107.235 619.059 107.654 618.714 108.096 618.561C111.027 617.546 113.944 616.49 117.086 616.278C117.697 616.237 118.281 615.89 118.893 615.752C121.018 615.275 121.912 615.713 123.333 617.402C124.306 618.559 125.364 619.807 126.662 620.475C127.697 621.007 127.581 621.472 127.224 622.091C126.31 623.675 125.502 625.396 124.274 626.71C120.904 630.315 117.407 633.809 113.833 637.214C110.567 640.326 107.167 643.301 103.765 646.266C100.455 649.151 97.0945 651.98 93.6973 654.762C92.5755 655.68 91.2771 656.257 90.3268 657.529C88.1124 660.494 84.557 661.957 81.9088 664.507C80.2617 666.094 78.1163 667.149 76.3331 668.611C74.5943 670.037 72.7888 671.336 70.9507 672.624C69.519 673.628 68.4726 675.228 66.9217 676.196C66.1889 676.653 65.4374 677.081 64.682 677.5C64.4804 677.612 64.0639 677.595 64.0315 677.714C63.6174 679.24 62.0922 679.446 61.0966 680.276C58.8224 682.174 57.4722 682.303 55.2053 680.301C54.2087 679.421 53.5612 678.145 52.7487 676.796Z" fill="#F08354"/>
<path d="M87.9954 746.828C88.3261 747.165 88.6233 745.816 88.8527 746.76C88.9947 747.345 88.7525 748.029 88.661 748.665C88.2615 751.442 87.1571 754.015 86.3408 756.672C86.1346 757.343 85.8318 758.244 86.1042 758.758C87.1906 760.807 86.1682 762.448 85.3387 764.152C85.0928 764.657 84.5474 765.083 84.4794 765.59C84.4 766.183 83.7353 766.626 84.3639 767.53C84.8456 768.222 84.9029 769.71 83.7148 770.512C83.494 770.661 83.2165 770.986 83.2406 771.198C83.547 773.907 81.1883 776.202 82.0382 779C82.1195 779.268 81.8303 779.645 81.7245 779.974C81.5546 780.503 81.2148 781.05 81.2601 781.562C81.4868 784.12 80.914 786.544 80.2126 788.961C80.1142 789.3 80.1244 789.672 80.0966 790.03C79.9821 791.503 79.2024 791.932 77.6043 791.656C75.4382 791.282 73.6197 790.194 72.0255 788.839C70.4465 787.497 69.8292 785.382 69.2492 783.519C68.4403 780.92 67.2438 778.472 66.5552 775.836C65.6716 772.452 64.5619 769.129 63.6111 765.764C62.2651 761 60.7214 756.126 56.6074 752.759C55.2625 751.658 53.6664 750.975 51.9836 750.94C49.3166 750.883 47.238 749.681 45.2675 748.113C44.8586 747.787 44.4958 747.402 44.1241 747.032C43.3124 746.224 43.5868 745.116 44.6964 744.791C44.9744 744.709 45.2934 744.778 45.5919 744.755C48.4479 744.536 51.3217 744.443 54.1539 744.05C56.6695 743.702 59.1569 743.091 61.624 742.466C64.4706 741.746 67.2799 740.879 70.1082 740.086C73.073 739.254 76.0403 738.43 79.0099 737.615C79.2204 737.557 79.46 737.617 79.6818 737.588C81.1075 737.404 81.8894 736.797 81.8276 735.51C81.6638 732.092 82.7076 728.832 83.0213 725.476C83.3117 722.369 83.457 719.263 83.6954 716.161C83.9455 712.907 83.589 709.655 83.9113 706.451C84.1261 704.315 83.9616 702.207 84.1441 700.102C84.2653 698.702 84.1161 697.353 84.0594 695.974C83.9481 693.269 84.1367 690.548 84.2579 687.836C84.3167 686.519 85.4647 685.861 86.6315 686.56C87.978 687.366 89.2023 688.376 90.48 689.297C90.8281 689.548 91.1459 689.878 91.5332 690.031C92.2738 690.321 92.5486 690.841 92.4333 691.569C91.873 695.104 92.3955 698.684 91.8801 702.242C91.5625 704.436 92.2025 706.763 91.9167 708.966C91.4941 712.223 92.1671 715.524 91.3439 718.742C91.277 719.004 91.3091 719.371 91.4495 719.591C92.016 720.479 91.9885 721.252 91.4993 722.224C91.2019 722.815 91.4676 723.688 91.4743 724.434C91.4792 724.984 91.662 725.532 90.7814 725.75C90.4818 725.825 90.256 726.713 90.2221 727.243C90.133 728.638 90.5274 730.014 89.9282 731.446C89.6569 732.094 90.1625 733.09 90.3977 733.904C90.4387 734.047 90.9083 734.179 91.1438 734.133C92.9479 733.777 94.7463 733.391 96.5401 732.986C99.5085 732.316 102.384 731.311 105.463 731.028C107.691 730.824 109.858 730.021 112.073 729.593C114.323 729.158 116.61 728.916 118.861 728.482C122.076 727.862 125.414 727.871 128.55 727.204C132.635 726.335 136.688 726.321 140.772 726.151C144.672 725.988 148.298 727.07 151.806 728.697C154.237 729.824 156.343 731.373 158.343 733.134C159.463 734.121 160.781 734.88 161.987 735.773C162.406 736.083 162.899 736.423 163.095 736.866C163.307 737.344 163.211 737.959 163.249 738.513C162.873 738.407 162.479 738.343 162.124 738.188C160.535 737.494 158.92 736.848 157.385 736.048C155.245 734.932 152.993 734.34 150.615 733.952C146.165 733.227 141.734 733.889 137.3 733.931C135.481 733.948 133.669 734.816 131.851 734.826C130.691 734.832 129.56 734.747 128.4 734.988C125.686 735.553 122.952 736.468 120.232 736.448C117.096 736.425 114.42 737.999 111.388 738.179C108.885 738.328 106.404 738.857 103.915 739.227C102.66 739.413 101.517 740.021 100.302 740.354C98.7747 740.772 97.134 740.797 95.7569 741.338C93.6908 742.15 91.3795 742.384 89.5351 743.673C88.605 744.323 87.5926 745.151 87.8801 746.719C87.7631 746.973 87.7557 747.112 87.7482 747.252C87.8306 747.11 87.913 746.969 87.9954 746.828ZM73.8033 772.61C74.1417 771.331 74.5216 770.061 74.8104 768.77C75.576 765.351 76.3055 761.925 77.0429 758.5C77.633 755.758 78.2238 753.017 78.794 750.271C79.0375 749.099 79.2284 747.916 79.4447 746.737C79.6223 745.77 79.0922 745.535 78.3067 745.735C76.1336 746.288 73.9861 746.947 71.8036 747.459C68.7201 748.181 65.7568 749.357 62.583 749.757C61.2068 749.93 59.8757 750.461 58.5242 750.83C59.4618 751.654 60.4334 752.444 61.3248 753.316C61.8839 753.862 62.2032 754.737 62.8385 755.106C64.4833 756.062 64.7675 757.907 65.7524 759.275C66.7433 760.651 67.2974 762.363 67.9237 763.974C68.5782 765.658 69.0474 767.413 69.6778 769.107C70.2571 770.664 71.0358 772.15 71.5507 773.725C71.9229 774.864 72.7426 774.766 73.4795 774.57C73.7088 774.509 73.7095 773.587 73.8033 772.61ZM85.2424 762.421C85.0647 762.2 84.8871 761.98 84.7094 761.759C84.5849 761.891 84.4603 762.022 84.3357 762.153C84.5649 762.319 84.7941 762.485 85.2424 762.421Z" fill="#F08354"/>
<path d="M72.3788 717.534C70.9998 719.206 69.4189 719.445 67.8381 718.221C66.6201 717.279 65.553 716.134 64.4615 715.037C63.9185 714.492 64.1685 714.336 64.8548 714.064C65.6431 713.751 66.2701 713.289 67.2168 713.591C68.4584 713.987 69.8323 713.929 70.5678 715.402C70.9418 716.152 71.7573 716.681 72.3788 717.534Z" fill="#F08354"/>
<path d="M571.672 218.852C573.311 215.144 575.304 211.959 576.466 208.494C577.917 204.17 575.703 200.526 573.33 196.965C569.364 191.012 565.696 184.86 561.751 178.892C561.129 177.95 559.735 177.494 558.66 176.88C556.95 175.903 555.027 175.204 553.52 173.985C551.25 172.149 553.502 170.708 554.256 169.11C554.569 168.447 554.245 167.508 554.436 166.753C554.55 166.304 555.169 165.589 555.452 165.637C558.512 166.154 567.246 162.597 568.902 159.668C569.379 158.823 568.92 156.832 568.177 156.011C561.255 148.355 557.06 139.143 552.086 130.268C549.322 125.335 548.165 118.541 541.705 115.548C538.913 114.254 536.937 110.993 534.871 108.401C533.148 106.238 531.209 105.414 528.454 105.464C524.359 105.537 523.556 104.165 523.941 100.328C524.083 98.9067 523.309 96.9707 522.283 95.9309C518.608 92.2082 518.045 87.9439 518.381 82.9324C518.562 80.2403 518.634 76.5764 514.422 75.434C508.173 73.7396 502.02 73.1329 495.479 73.8414C488.571 74.5898 481.513 73.8169 474.54 74.1346C470.698 74.3096 466.889 75.3151 463.081 76.0298C459.784 76.6485 456.475 77.2548 453.236 78.1111C450.631 78.7998 448.104 79.8078 445.594 80.8029C445.266 80.9327 445.243 81.8311 445.079 82.3735C445.808 82.59 446.533 82.8215 447.266 83.0183C447.898 83.1876 448.539 83.3173 449.176 83.4645C448.987 83.9281 448.645 84.3906 448.642 84.8554C448.636 85.6892 448.537 86.7696 448.992 87.3216C454.417 93.8969 461.18 98.3038 469.772 99.3996C476.826 100.299 483.916 100.919 490.971 101.814C495.004 102.325 498.982 103.292 503.019 103.746C504.866 103.953 506.94 103.798 508.661 103.146C512.892 101.544 516.619 103.399 520.388 104.563C521.484 104.902 522.134 106.687 522.988 107.809C521.912 108.276 520.846 109.118 519.759 109.146C513.44 109.311 507.096 109.604 500.797 109.237C493.927 108.836 487.092 107.8 480.249 106.974C474.59 106.292 468.783 106.099 463.336 104.611C457.995 103.152 452.849 100.847 448.796 96.4856C445.874 93.3408 443.201 90.3277 441.583 86.2158C439.619 81.2246 435.366 79.8809 430.048 80.2498C426.659 80.4849 423.084 79.207 419.743 78.137C418.875 77.8591 418.159 75.8166 418.156 74.5826C418.154 73.7543 419.479 72.274 420.298 72.21C423.118 71.9899 425.983 72.4286 428.817 72.3021C431.438 72.185 434.911 72.5778 436.453 71.1107C438.859 68.8203 440.962 65.2286 439.9 61.5625C439.076 58.716 436.109 57.5125 433.286 58.3623C423.373 61.3462 413.739 59.9215 404.021 57.3785C399.608 56.2237 395.011 55.7424 390.476 55.1211C389.828 55.0323 388.499 55.792 388.416 56.3082C386.461 68.5037 378.97 77.62 369.468 83.8441C363.213 87.9416 357.108 93.6588 348.705 94.4141C346.062 94.6518 343.694 97.1258 341.004 97.8785C337.293 98.9172 333.376 99.1979 329.583 99.9764C322.776 101.374 316.041 103.19 309.188 104.282C303.489 105.191 297.661 105.265 291.898 105.796C287.229 106.226 282.567 107.229 277.91 107.179C271.924 107.116 266.382 109.962 260.153 108.792C253.587 107.559 246.688 108.128 240.102 106.962C233.398 105.776 226.849 103.59 220.329 101.534C217.374 100.602 215.065 100.53 212.03 101.952C204.703 105.386 197.062 108.184 189.438 110.936C184.236 112.814 178.922 114.54 173.518 115.643C170.314 116.296 166.836 115.518 163.483 115.543C159.73 115.572 155.976 115.74 152.226 115.926C149.564 116.059 147.94 118.461 148.933 121.132C151.756 128.731 155.124 136.151 157.532 143.874C159.302 149.547 159.927 155.58 160.966 161.469C161.063 162.016 160.466 162.687 160.19 163.3C159.791 162.746 159.188 162.245 159.032 161.63C158.605 159.94 158.322 158.21 158.057 156.484C156.305 145.05 149.699 135.71 144.754 125.656C143.714 123.54 142.903 121.034 141.232 119.565C138.053 116.767 135.079 113.772 129.637 116.474C124.77 118.889 118.905 119.224 113.57 120.784C108.385 122.299 103.305 124.178 98.1968 125.952C96.3256 126.602 91.9404 124.617 92.3438 122.955C92.6765 121.584 94.4856 120.045 95.9599 119.569C102.639 117.411 109.433 115.611 116.181 113.667C119.258 112.781 122.285 111.328 125.405 111.1C128.641 110.864 129.7 108.97 130.189 106.606C130.895 103.189 132.538 103.37 134.794 104.92C136.451 106.058 137.877 107.647 139.669 108.443C141.693 109.343 144.044 110.123 146.195 109.992C150.435 109.735 154.63 108.787 158.852 108.18C160.734 107.91 162.698 108.005 164.512 107.516C166.828 106.893 168.602 107.748 170.751 108.357C173.611 109.167 177.131 108.889 180.049 108.015C186.863 105.973 193.53 103.406 200.166 100.82C202.575 99.8808 204.921 98.5111 206.883 96.8504C207.509 96.3212 207.243 93.9693 206.626 92.8823C204.518 89.1699 202.078 85.6461 199.755 82.0567C198.448 80.0374 196.603 79.368 194.381 80.2419C191.75 81.2767 189.244 82.6586 186.568 83.5422C184.881 84.0995 182.952 83.8765 181.187 84.2594C178.538 84.8342 175.96 85.7441 173.306 86.2909C171.957 86.5688 170.17 86.8795 169.197 86.2396C168.136 85.5423 166.918 83.3129 167.313 82.549C168.065 81.0932 169.753 79.6086 171.335 79.1794C179.807 76.8814 188.423 75.1054 196.871 72.7309C200.908 71.5962 202.098 67.3853 203.56 64.0458C208.191 53.4689 216.461 54.164 223.484 59.8679C226.953 62.6854 229.287 64.6733 233.781 62.2974C236.207 61.0147 239.381 61.2356 242.104 60.4063C246.567 59.0474 250.895 57.2441 255.357 55.8843C262.075 53.8376 268.848 51.9682 275.621 50.1078C279.842 48.9483 284.047 47.486 288.54 48.2141C289.104 48.3056 289.598 48.8343 290.124 49.1604C289.696 49.6361 289.306 50.4848 288.835 50.5321C280.987 51.3201 274.713 56.2779 267.417 58.5322C257.668 61.5448 248.014 64.8665 238.265 67.8788C234.795 68.9508 233.003 70.8286 232.749 74.5699C232.291 81.314 229.421 87.0721 224.809 91.9947C223.964 92.8966 222.542 94.7208 222.663 94.8416C224.079 96.2568 225.575 97.8374 227.376 98.5645C229.902 99.5843 232.675 100.133 235.393 100.508C241.912 101.407 248.468 102.762 254.997 102.694C264.566 102.595 274.127 101.443 283.687 100.687C292.589 99.9825 301.515 99.4544 310.372 98.3705C315.514 97.7414 320.55 96.2136 325.615 95.011C331.269 93.6685 337.243 93.0014 342.466 90.6709C351.178 86.7844 360.012 83.2419 367.845 77.2125C374.892 71.7875 378.679 64.9437 381.909 57.2812C382.005 57.0539 381.973 56.6783 382.129 56.5842C389.364 52.2178 382.95 48.2618 381.787 44.1399C381.403 42.7771 381.192 41.3655 380.901 39.9762C382.609 40.404 384.904 40.2754 385.924 41.3534C391.095 46.8145 397.174 50.0446 404.696 50.8114C412.899 51.6477 421.094 52.6305 429.25 53.8375C433.183 54.4196 436.926 53.0049 436.304 50.3817C435.934 48.8161 434.345 46.6894 432.952 46.376C428.929 45.4703 426.919 42.2755 424.031 40.0384C420.428 37.2473 416.567 34.3592 412.338 32.9604C409.596 32.0536 405.961 33.5713 402.797 34.3088C400.394 34.8689 398.266 35.3627 395.958 33.7785C394.807 32.9881 392.992 33.2449 391.605 32.7023C387.944 31.2707 384.337 29.698 380.756 28.0761C380.302 27.8703 380.132 27.0363 379.83 26.4933C380.391 26.3251 380.958 25.9907 381.511 26.0146C386.637 26.2359 391.786 25.2611 396.892 27.1903C398.836 27.9249 401.494 27.2792 403.695 26.7322C410.595 25.0173 416.734 26.6521 422.341 30.6394C430.307 36.3033 437.937 42.4906 446.234 47.6034C448.671 49.1051 453.417 48.8117 456.184 47.4582C464.296 43.4893 472.796 44.3033 481.25 43.9407C481.859 43.9145 482.455 43.6535 483.067 43.5566C484.607 43.3126 486.982 42.3924 487.52 43.0236C488.61 44.3036 488.892 46.4115 489.073 48.2217C489.115 48.6344 487.209 49.8439 486.517 49.6351C480.256 47.7474 474.396 51.9933 468.212 50.706C467.87 50.6349 467.42 51.0875 467.02 51.2964C470.221 54.1056 468.661 58.1066 469.54 61.4994C471.306 68.3183 473.589 68.1139 478.369 67.8285C482.558 67.5784 486.766 67.661 490.957 67.432C495.678 67.174 500.399 66.8321 505.101 66.3441C511.03 65.7287 521.248 71.1824 524.134 76.5238C526.676 81.2281 529.455 85.8052 531.958 90.5292C532.69 91.9106 532.506 93.8082 533.318 95.11C535.071 97.9204 536.938 100.748 539.225 103.118C543.736 107.794 548.63 112.1 553.192 116.73C553.885 117.434 553.687 119.052 553.822 120.256C553.932 121.236 553.579 122.434 554.023 123.186C557.837 129.651 561.649 136.125 565.746 142.41C568.058 145.957 571.005 149.083 573.476 152.536C574.841 154.443 576.181 156.518 576.866 158.725C577.716 161.46 576.334 163.886 574.01 165.349C571.62 166.853 568.926 167.866 566.409 169.18C563.674 170.608 561.568 172.373 563.627 175.844C563.858 176.233 564.092 177.038 564.206 177.017C570.566 175.828 570.993 181.732 573.552 184.941C575.583 187.487 576.785 190.765 579.034 193.051C583.045 197.127 583.825 201.93 582.332 206.848C580.627 212.465 577.71 217.703 575.748 223.258C574.583 226.554 573.693 230.145 573.708 233.599C573.721 236.407 572.658 238.365 571.268 240.398C568.404 244.588 568.308 247.637 571.298 250.754C575.175 254.794 578.026 254.882 582.377 252.872C588.666 249.968 593.931 246.116 598.897 241.216C604.431 235.757 611.45 231.835 617.315 226.668C621.416 223.055 624.837 218.606 628.182 214.24C629.073 213.078 628.826 210.822 628.658 209.111C627.958 201.963 624.499 196.344 620.126 190.584C614.056 182.586 604.944 178.262 598.759 170.609C593.898 164.594 588.881 158.464 587.058 150.995C585.731 145.556 586.744 139.545 586.714 133.788C587.306 133.799 588.368 133.672 588.418 133.842C588.942 135.623 589.86 137.532 589.609 139.251C588.74 145.198 590.792 149.924 594.448 154.442C596.621 157.127 597.721 160.688 599.921 163.345C603.258 167.375 604.71 173.537 611.342 174.181C611.837 174.229 612.253 175.097 612.706 175.583C617.731 180.984 622.863 186.292 627.714 191.844C629.125 193.46 629.758 195.766 630.689 197.783C630.89 198.22 630.642 199.011 630.925 199.241C636.459 203.741 633.418 209.798 632.917 214.798C632.527 218.687 629.503 223.004 626.435 225.795C619.184 232.389 610.819 237.768 603.65 244.439C597.832 249.851 590.962 252.912 584.095 256.329C580.149 258.292 579.734 264.678 582.488 268.284C584.432 270.83 585.969 273.765 587.223 276.724C587.756 277.979 587.663 280.638 586.892 281.12C582.331 283.971 581.924 288.752 581.063 293.123C579.709 300.003 574.36 303.165 569.432 306.775C567.969 307.848 566.186 308.654 564.427 309.11C562.343 309.651 559.84 310.841 558.728 307.357C558.528 306.729 557.045 306.494 556.14 306.112C555.5 305.843 554.835 305.631 554.182 305.394C554.805 304.892 555.364 304.259 556.065 303.913C557.829 303.042 559.668 302.327 561.448 301.487C561.811 301.316 562.045 300.874 562.339 300.556C561.942 300.338 561.534 299.912 561.148 299.931C554.19 300.265 549.598 295.821 545.17 291.559C543.692 290.137 543.766 287.18 542.916 285.009C541.393 281.123 544.45 278.267 544.997 274.863C545.618 270.996 548.333 270.116 551.654 270.024C552.051 270.013 552.465 269.987 552.847 270.073C556.83 270.971 559.917 269.896 561.89 266.134C562.159 265.621 562.8 265.303 563.269 264.894C563.293 265.615 563.552 266.449 563.277 267.028C562.959 267.698 562.112 268.096 561.61 268.707C561.326 269.051 561.273 269.585 561.116 270.034C561.731 270.165 562.518 270.598 562.927 270.366C563.824 269.856 564.613 269.081 565.302 268.289C569.013 264.02 569.761 257.621 565.72 253.774C561.679 249.928 561.465 245.871 563.8 242.07C568.167 234.959 568.833 226.772 571.672 218.852ZM548.273 281.075C550.248 289.957 557.201 294.229 564.348 298.249C565.064 298.651 566.308 298.248 567.273 298.052C573.395 296.807 575.316 287.98 573.353 282.262C573.02 281.294 572.363 280.438 571.856 279.53C571.028 280.56 569.825 281.472 569.456 282.647C568.814 284.688 569.013 287.019 568.245 288.988C567.572 290.713 566.055 292.108 564.911 293.649C564.465 291.915 563.978 290.191 563.586 288.445C563.192 286.69 565.108 283.159 560.576 284.664C560.422 284.715 559.836 284.086 559.782 283.724C559.012 278.52 555.664 275.948 550.853 274.77C548.288 274.142 546.667 275.589 547.19 278.176C547.361 279.017 547.653 279.834 548.273 281.075ZM208.869 85.2243C211.021 86.9848 213.089 88.8691 215.378 90.4272C216.029 90.8705 217.868 90.7529 218.24 90.2328C220.97 86.4158 223.458 82.4258 226.04 78.502C226.982 77.07 228.043 75.7116 228.917 74.2405C229.51 73.2415 229.871 72.1048 230.336 71.0296C229.424 71.2365 228.521 71.5034 227.598 71.6332C226.702 71.7591 225.788 71.7506 224.881 71.7898C223.178 71.8634 221.419 71.683 219.787 72.0588C217.658 72.549 215.499 73.2387 213.589 74.2761C211.079 75.6391 208.298 77.0184 206.57 79.1496C205.043 81.031 206.627 83.3012 208.869 85.2243ZM449.682 70.7574C453.85 72.0873 457.584 70.4671 461.404 69.1406C464.069 68.2152 465.344 66.349 464.585 63.8379C464.067 62.121 462.761 60.0731 461.248 59.3627C459.143 58.3736 456.479 58.6525 454.117 58.1104C449.723 57.1016 448.571 60.6906 447.296 63.2757C446.084 65.7318 445.554 68.874 449.682 70.7574ZM217.292 61.9779C215.134 62.1875 212.802 61.9753 210.885 62.7671C209.759 63.2322 208.445 65.5433 208.749 66.5719C209.102 67.7683 211.055 69.1045 212.446 69.2698C216.928 69.8022 218.321 67.778 217.292 61.9779ZM574.332 266.847C573.701 266.663 572.576 266.216 572.512 266.336C571.255 268.684 570.121 271.098 568.963 273.498C569.515 273.717 570.197 274.262 570.598 274.102C573.657 272.883 575.37 270.758 574.332 266.847ZM440.69 54.4669C440.081 54.2628 439.472 54.0588 438.863 53.8547C438.902 54.5503 438.941 55.2458 438.98 55.9414C439.678 55.5876 440.376 55.2337 440.69 54.4669Z" fill="#2A2932"/>
<path d="M316.639 421.834C315.761 420.962 312.936 420.725 315.079 418.313C315.247 418.124 314.656 417.227 314.377 416.68C311.408 410.845 308.64 404.893 305.359 399.238C303.942 396.796 301.464 394.968 299.464 392.865C297.813 391.129 296.546 389.552 297.487 386.685C298.32 384.15 293.379 378.956 290.309 379.11C282.246 379.516 274.184 380.111 266.155 380.946C260.411 381.544 254.726 382.69 249.005 383.524C238.034 385.124 227.089 387.463 216.067 387.924C210.329 388.165 206.597 390.92 202.226 393.293C201.04 393.937 199.803 394.757 198.521 394.907C192.725 395.582 190.428 397.853 190.249 403.943C190.049 410.744 192.303 417.29 192.753 423.984C193.34 432.704 195.55 441.014 197.853 449.309C201.851 463.712 211 474.371 223.204 482.581C225.966 484.438 228.925 486.013 231.85 487.613C238.508 491.256 245.811 491.788 253.21 492.245C262.979 492.849 272.14 491.027 280.777 486.516C287.47 483.02 294.451 479.934 300.687 475.748C307.615 471.097 312.064 464.141 314.953 456.248C316.557 451.862 318.358 447.547 320.16 443.237C320.367 442.741 321.152 442.485 321.669 442.118C321.98 442.576 322.374 442.998 322.588 443.497C324.263 447.387 324.729 451.175 322.425 455.122C321.076 457.432 320.614 460.255 319.295 462.589C314.347 471.341 308.116 478.954 299.063 483.809C291.975 487.609 284.995 491.665 277.667 494.937C274.118 496.521 269.897 496.669 265.951 497.281C260.96 498.054 255.951 499.037 250.929 499.166C247.46 499.256 243.936 498.158 240.476 497.408C234.417 496.096 228.27 494.982 222.994 491.381C220.415 489.62 217.479 488.203 215.341 486.01C209.844 480.373 204.645 474.439 199.466 468.503C198.456 467.345 198.277 465.492 197.355 464.222C196.06 462.438 194.499 460.823 192.885 459.315C192.519 458.973 191.167 459.092 190.797 459.489C190.274 460.052 189.819 461.232 190.063 461.871C193.637 471.244 195.514 480.97 196.766 490.894C197.595 497.455 199.224 503.91 200.25 510.451C201.694 519.663 202.988 528.9 204.185 538.147C204.615 541.467 204.636 544.846 204.741 548.201C204.833 551.156 203.185 550.952 201.319 549.851C198.114 547.959 197.388 544.58 197.047 541.372C196.554 536.728 196.949 531.99 196.469 527.343C195.665 519.557 194.468 511.813 193.44 504.05C192.693 498.415 191.944 492.781 191.212 487.144C190.539 481.959 189.943 476.764 189.213 471.588C188.369 465.612 187.609 459.612 186.44 453.697C185.679 449.847 184.252 446.128 183.127 442.35C183.021 441.995 182.753 441.545 182.874 441.286C185.433 435.787 182.335 431.037 180.81 426.127C179.793 422.85 178.516 419.63 177.057 416.524C176.269 414.846 175.174 412.755 173.666 412.073C168.613 409.789 164.102 406.09 157.913 406.522C154.835 406.737 153.451 401.604 155.897 398.511C157.924 395.948 160.773 394.048 162.937 391.574C163.967 390.398 165.171 388.078 164.672 387.139C163.726 385.356 161.732 384.008 159.942 382.83C158.427 381.833 156.291 381.674 154.963 380.528C153.131 378.946 153.944 376.868 156.247 376.271C157.192 376.027 158.225 375.763 158.978 375.192C164.276 371.175 164.335 371.115 160.413 361.882C157.819 355.775 160.706 350.536 162.931 345.281C163.327 344.348 166.052 343.646 167.328 344.041C168.751 344.483 169.802 346.255 170.871 347.566C171.026 347.755 170.518 348.779 170.084 349.112C165.041 352.978 163.699 359 166.483 365.036C167.28 366.764 168.045 368.813 170.258 367.495C171.932 366.497 175.371 366.225 173.803 362.583C173.53 361.949 173.78 361.021 173.963 360.272C175.489 354.015 177.002 347.822 176.018 341.223C175.528 337.941 176.186 334.501 176.164 331.133C176.126 325.254 175.774 319.372 175.911 313.5C176.027 308.514 176.899 303.542 176.938 298.559C176.956 296.167 175.666 293.794 175.249 291.363C174.566 287.387 173.944 283.384 173.622 279.367C173.396 276.554 173.596 273.687 173.845 270.866C173.949 269.688 174.52 268.465 175.179 267.46C175.498 266.975 176.506 266.829 177.215 266.791C177.399 266.781 177.821 267.757 177.817 268.278C177.796 271.381 177.478 274.496 177.664 277.583C177.821 280.186 178.644 282.742 178.969 285.345C179.7 291.202 180.721 296.882 184.229 301.925C184.918 302.915 184.52 305.768 183.591 306.578C180.208 309.527 180.993 313.614 181.01 316.909C181.043 323.62 183.219 330.35 183.016 337.026C182.722 346.712 181.147 356.363 179.992 366.014C179.854 367.158 179.178 368.847 178.315 369.193C174.12 370.874 174.684 374.16 174.918 377.54C175.067 379.698 174.565 381.926 174.899 384.036C175.07 385.116 176.276 386.552 177.301 386.853C178.765 387.283 180.491 386.821 182.106 386.74C181.962 385.64 182.008 384.471 181.639 383.453C180.719 380.909 181.416 377.504 177.991 376.179C177.97 376.171 178.216 374.752 178.563 374.629C181.693 373.519 184.878 372.566 188.035 371.534C188.733 371.306 189.387 370.943 190.061 370.642C189.502 370.148 188.959 369.635 188.38 369.166C187.994 368.854 187.559 368.601 187.141 368.329C186.106 367.657 185.069 366.988 184.032 366.318C185.318 365.931 186.73 365 187.864 365.264C190.601 365.903 193.224 367.06 195.865 368.082C199.667 369.553 198.17 371.602 196.191 373.304C194.282 374.947 191.948 376.096 190.04 377.74C188.314 379.228 186.547 381.053 188.127 383.646C189.973 386.677 192.424 384.582 194.613 384.162C195.551 383.981 196.372 383.156 197.309 382.999C202.271 382.172 207.239 381.333 212.233 380.75C218.232 380.05 224.279 379.756 230.27 379.004C236.247 378.253 242.175 377.118 248.135 376.221C252.75 375.525 257.383 374.952 262.003 374.288C263.107 374.129 264.207 373.882 265.281 373.579C269.958 372.257 269.949 371.991 267.757 367.528C266.905 365.794 266.531 363.708 266.415 361.755C266.225 358.576 268.148 356.709 271.182 357.096C273.822 357.432 276.354 358.683 278.902 359.618C279.334 359.776 279.915 360.717 279.903 360.728C275.618 364.68 281.314 363.669 282.057 364.288C284.079 365.975 286.716 366.971 289.189 368.059C292.451 369.493 295.757 370.84 299.103 372.065C302.559 373.329 306.085 374.405 309.583 375.557C311.808 376.29 312.251 377.524 310.525 379.216C307.709 381.976 309.514 384.165 311.915 385.076C317.093 387.04 321.374 391.174 327.35 391.337C328.305 391.362 329.208 393.303 330.135 394.358C329.152 394.631 328.038 395.351 327.208 395.106C321.526 393.432 314.915 394.553 310.287 389.594C310.028 389.316 308.95 389.322 308.742 389.584C308.374 390.049 308.082 390.925 308.275 391.433C310.94 398.436 314.095 405.286 316.217 412.445C317.024 415.166 319.86 418.472 316.639 421.834ZM278.14 368.741C276.883 368.897 275.626 369.052 274.369 369.208C274.936 369.964 275.471 370.747 276.079 371.469C276.668 372.17 277.33 372.809 277.963 373.472C278.499 374.034 279.039 374.593 279.578 375.153C280.112 374.084 281.233 372.884 281.03 371.982C280.788 370.905 279.413 370.083 278.14 368.741ZM179.768 406.84C179.493 405.731 179.535 404.343 178.864 403.584C178.038 402.648 176.62 402.236 175.457 401.598C175.324 402.51 174.752 403.869 175.14 404.251C176.351 405.442 177.925 406.263 179.768 406.84Z" fill="#2A2932"/>
<path d="M452.229 238.395C457.692 236.477 463.222 235.306 468.14 232.889C473.991 230.013 480.403 227.646 484.395 221.891C484.543 221.677 484.805 221.544 484.963 221.335C485.834 220.177 486.69 219.008 487.551 217.843C488.26 220.337 492.485 221.044 490.022 225.387C486.371 231.825 479.914 233.819 474.315 237.027C469.909 239.552 464.72 240.754 459.818 242.362C452.803 244.665 445.833 247.226 438.663 248.902C429.788 250.977 420.784 252.823 411.732 253.718C403.407 254.541 394.887 254.604 386.556 253.853C376.316 252.93 365.983 251.579 356.072 248.964C348.732 247.027 341.747 243.442 337.79 235.707C336.106 232.416 332.578 229.857 329.423 227.62C327.921 226.556 325.325 227.072 323.235 226.793C316.008 225.825 308.786 224.822 301.562 223.835C301.433 223.817 301.244 223.873 301.177 223.803C297.219 219.691 291.728 220.504 286.855 219.437C281.664 218.301 276.366 217.658 271.151 216.621C262.974 214.995 255.183 212.651 247.833 208.242C241.531 204.462 234.399 201.741 226.832 201.207C225.402 201.106 223.435 201.957 222.574 203.047C222.089 203.66 222.942 206.314 223.905 206.924C228.799 210.024 234.015 212.611 238.934 215.675C241.489 217.265 243.727 219.396 245.986 221.42C247.565 222.835 248.797 224.651 250.429 225.988C253.435 228.451 253.76 232.599 252.912 234.949C251.562 238.686 248.963 242.733 243.821 243.061C235.569 243.587 227.654 241.811 219.78 239.67C218.628 239.357 216.695 238.732 216.356 239.182C215.044 240.921 213.173 243.177 213.414 244.987C214.467 252.896 216.324 260.694 217.581 268.581C217.962 270.968 217.12 273.525 217.252 275.982C217.485 280.304 218.351 284.607 218.389 288.922C218.472 298.268 215.859 307.058 213.459 316.07C211.274 324.277 206.902 331.252 204.074 339.004C202.582 343.095 199.186 346.495 196.619 350.186C196.249 350.717 195.7 351.12 195.25 351.597C194.424 352.47 193.61 353.354 192.791 354.233C192.019 353.16 190.801 352.183 190.547 351C188.915 343.376 191.371 338.706 198.303 334.321C200.045 333.219 201.333 330.944 202.16 328.932C204.921 322.223 207.759 315.501 209.819 308.562C211.185 303.956 211.248 298.967 211.936 294.155C213.414 283.814 211.676 273.634 210.316 263.454C209.117 254.482 207.626 245.55 206.275 236.599C205.992 234.725 203.426 233.271 205.888 230.865C208.622 228.192 210.983 228.612 213.899 230.251C217.324 232.176 220.831 234.029 224.483 235.446C226.223 236.121 228.383 235.724 230.353 235.794C232.135 235.857 234.118 235.406 235.661 236.038C239.271 237.518 242.246 236.208 244.808 234.173C245.808 233.379 246.875 231.582 245.208 229.393C239.583 222.008 231.365 218.675 223.587 214.56C219.768 212.539 216.189 210.057 212.338 208.107C208.76 206.295 208.51 203.47 208.968 200.072C209.542 195.815 212.376 194.62 216.099 194.436C226.478 193.921 236.57 195.403 246.118 199.495C250.289 201.282 253.895 204.421 258.099 206.085C262.354 207.768 267.038 208.355 271.52 209.478C279.257 211.418 286.981 213.407 294.714 215.361C297.619 216.095 300.653 216.48 303.421 217.557C311.1 220.549 319.147 219.974 327.097 220.654C331.248 221.009 334.628 223.573 337.483 226.928C341.241 231.345 345.047 236.007 349.74 239.247C353.441 241.802 358.433 242.752 362.999 243.726C370.434 245.314 377.95 246.938 385.506 247.449C394.707 248.072 404.027 248.089 413.218 247.376C421.033 246.77 428.791 244.99 436.475 243.284C441.746 242.114 446.847 240.181 452.229 238.395Z" fill="#2A2932"/>
<path fill-rule="evenodd" clip-rule="evenodd" d="M376.797 559.36C380.15 558.571 383.424 557.801 384.604 553.513C385.069 553.328 385.525 553.117 385.97 552.91C387.178 552.35 388.312 551.824 389.362 551.957C390.891 552.152 392.394 552.572 393.896 552.992C395.534 553.45 397.17 553.908 398.836 554.072C399.528 554.14 400.232 554.22 400.942 554.301C404.573 554.716 408.362 555.148 411.556 554.069L411.796 553.988C418.616 551.684 425.067 549.505 432.041 552.977C433.009 553.459 433.962 553.97 434.914 554.481C435.354 554.717 435.794 554.953 436.235 555.187C435.878 555.541 435.536 555.923 435.195 556.305C434.446 557.143 433.698 557.981 432.775 558.523C429.826 560.254 430.309 562.503 430.817 564.874C430.919 565.348 431.022 565.827 431.098 566.307C431.529 569.006 432.968 568.722 434.668 568.387C434.86 568.349 435.055 568.311 435.252 568.276C436.201 568.108 437.314 568.369 438.249 568.716C441.583 569.953 444.152 569.186 445.492 565.831C446.75 562.682 449.148 562.301 451.721 563.278C456.163 562.13 462.839 558.88 454.004 555.072C448.299 552.862 442.751 550.232 437.212 547.606C436.535 547.285 435.859 546.964 435.182 546.644C429.787 544.094 429.423 538.958 434.566 536.258C435.241 535.904 435.864 535.337 436.33 534.729C436.667 534.29 436.897 533.769 437.127 533.248C437.228 533.02 437.329 532.792 437.439 532.571C437.193 532.459 436.937 532.305 436.681 532.151C436.122 531.814 435.564 531.477 435.109 531.583C433.531 531.952 431.991 532.487 430.452 533.021C429.782 533.254 429.112 533.486 428.439 533.705C425.247 534.743 422.472 535.102 419.729 532.068C412.427 523.989 403.214 523.59 393.363 528.494C388.136 531.096 381.415 532.415 375.652 531.772C369.148 531.046 362.932 530.673 356.519 531.784C355.752 531.917 354.985 532.067 354.219 532.217C349.381 533.164 344.57 534.106 339.778 530.703C337.946 529.402 335.694 528.696 333.439 527.989C332.35 527.647 331.259 527.306 330.215 526.896C328.066 526.054 326.68 525.81 324.853 528.286C321.848 532.356 318.071 535.947 314.211 539.264C311.499 541.594 308.241 543.419 304.978 544.937C302.217 546.222 299.255 546.339 296.887 543.509C296.068 542.529 294.744 541.657 293.511 541.394C288.81 540.391 284.068 539.538 279.305 538.911C278.535 538.81 277.698 539.226 276.86 539.643C276.475 539.834 276.09 540.026 275.711 540.167C275.85 540.461 275.965 540.784 276.08 541.106C276.331 541.81 276.582 542.514 277.077 542.921C278.072 543.74 279.145 544.473 280.217 545.204C281.754 546.253 283.287 547.3 284.578 548.592C288.933 552.95 293.599 554.958 299.938 553.557C309.903 551.355 317.941 546.148 324.621 538.768C328.454 534.532 329.331 534.118 334.569 536.375C340.862 539.087 347.223 541.503 354.274 538.962C361.934 536.202 368.429 536.975 373.499 544.43C375.551 547.447 374.815 548.743 372.583 550.625C369.309 553.385 365.99 555.674 361.36 555.383C357.657 555.15 353.948 555.025 350.239 554.9C347.226 554.798 344.212 554.697 341.202 554.537C338.955 554.418 336.709 554.248 334.464 554.078C330.449 553.774 326.436 553.469 322.421 553.459C321.612 553.457 320.799 554.637 319.987 555.818C319.612 556.363 319.237 556.908 318.862 557.336C319.198 557.578 319.526 557.865 319.854 558.152C320.568 558.778 321.282 559.403 322.087 559.556C326.349 560.367 330.659 561.088 334.982 561.383C335.556 561.423 336.13 561.463 336.704 561.503C342.572 561.911 348.478 562.323 354.312 561.936C359.524 561.59 363.052 562.593 366.117 567.178C367.33 568.991 368.64 570.814 370.226 572.288C373.011 574.874 375.448 574.212 377.053 570.807C377.51 569.838 378.038 568.903 378.567 567.967C378.948 567.292 379.329 566.617 379.684 565.929C379.821 565.662 379.854 565.341 379.887 565.02C379.902 564.872 379.917 564.725 379.942 564.582C379.83 564.563 379.718 564.539 379.607 564.515C379.36 564.463 379.114 564.411 378.867 564.405C378.647 564.401 378.422 564.385 378.197 564.37C377.573 564.327 376.943 564.283 376.388 564.462C373.817 565.29 371.028 564.752 370.822 562.242C370.626 559.844 372.531 559.768 374.338 559.697C374.971 559.672 375.593 559.647 376.107 559.523C376.337 559.468 376.567 559.414 376.797 559.36ZM378.343 541.307L380.016 538.427C386.864 538.871 392.6 537.393 398.141 533.825C404.353 529.826 415.335 534.122 417.367 541.098C417.999 543.268 416.859 544.766 414.152 545.404C406.322 547.252 398.889 545.596 391.448 543.939C389.508 543.507 387.567 543.074 385.619 542.704C384.921 542.571 384.216 542.47 383.511 542.368C382.831 542.271 382.152 542.173 381.477 542.047C380.748 541.911 380.027 541.728 379.307 541.546C378.986 541.465 378.665 541.384 378.343 541.307Z" fill="#2A2932"/>
<path d="M363.122 170.889C361.529 169.824 359.994 168.482 358.322 167.343C357.809 166.994 356.916 167.201 356.198 167.154C356.358 167.706 356.431 168.304 356.694 168.803C358.418 172.079 356.474 177.219 352.848 177.828C351.686 178.023 349.999 176.384 348.873 175.263C345.515 171.922 342.761 167.785 338.955 165.127C332.623 160.704 325.423 157.896 317.564 157.074C313.656 156.665 309.812 155.548 305.903 155.269C297.195 154.647 288.95 156.923 281.021 160.259C280.028 160.677 279.357 162.737 279.197 164.113C278.269 172.083 284.688 175.028 289.728 178.657C294.96 182.425 300.268 186.325 306.087 188.969C311.559 191.454 317.714 192.487 323.621 193.942C327.055 194.787 330.598 195.699 334.086 195.679C337.783 195.657 341.469 194.529 345.17 193.952C349.244 193.317 352.669 191.617 355.28 188.327C355.547 187.99 356.515 188.209 357.158 188.169C357.116 188.757 357.091 189.346 357.029 189.931C356.291 196.903 350.635 197.95 345.439 199.296C341.657 200.275 337.759 201.181 333.885 201.321C329.724 201.47 325.474 200.989 321.365 200.227C316.983 199.415 312.465 198.507 308.464 196.652C301.439 193.395 294.635 189.598 287.993 185.603C284.435 183.463 281.301 180.562 278.168 177.787C273.889 173.997 272.494 168.721 271.596 163.374C271.015 159.918 275.083 154.064 279.028 152.987C282.996 151.905 287.17 151.597 291.222 150.795C293.02 150.439 294.91 149.985 296.455 149.065C298.412 147.9 297.995 145.44 295.838 144.581C290.015 142.26 284.143 140.06 278.336 137.702C273.444 135.716 268.756 133.092 263.722 131.627C257.936 129.943 251.913 128.814 245.915 128.18C237.007 127.238 230.546 134.75 228.993 142.459C228.747 143.681 228.584 144.972 228.048 146.067C227.63 146.922 226.692 147.523 225.985 148.237C225.372 147.157 224.433 146.139 224.213 144.985C223.776 142.695 223.765 140.327 223.525 137.997C223.133 134.192 225.956 131.917 227.974 129.523C233.484 122.986 240.036 120.262 249.127 122.306C256.987 124.074 264.937 125.701 272.531 128.197C279.939 130.631 286.656 135.092 293.937 138.013C298.858 139.987 303.024 143.089 307.592 145.429C313.996 148.709 321.297 150.214 328.158 152.638C331.977 153.987 335.657 155.721 339.443 157.168C342.435 158.311 345.425 159.616 348.537 160.253C354.094 161.391 358.038 165.077 362.302 168.279C362.864 168.7 362.866 169.867 363.122 170.889Z" fill="#2A2932"/>
<path fill-rule="evenodd" clip-rule="evenodd" d="M401.875 678.767C407.064 677.472 412.417 676.136 413.785 669.116C414.561 668.564 415.325 668.055 416.071 667.558C417.424 666.656 418.714 665.796 419.893 664.803C421.498 663.452 422.562 662.833 424.949 663.854C429.142 665.648 436.091 663.567 437.889 660.101C438.73 658.48 439.412 656.797 440.096 655.107C441.156 652.489 442.222 649.855 443.898 647.417C445.098 645.669 445.684 643.515 446.273 641.352C446.806 639.392 447.341 637.424 448.338 635.746C453.978 626.245 459.955 616.921 466.255 607.844C468.213 605.022 470.578 602.488 472.946 599.951C474.455 598.333 475.965 596.715 477.372 595.02C481.586 589.943 485.718 584.799 489.85 579.654C491.368 577.764 492.886 575.874 494.408 573.987C495.752 572.321 497.09 570.649 498.429 568.978C500.582 566.287 502.736 563.597 504.916 560.928C505.7 559.969 506.472 558.997 507.245 558.025C509.497 555.193 511.751 552.359 514.289 549.811C514.492 549.607 514.696 549.404 514.9 549.202C518.714 545.21 518.719 541.294 518.208 539.773C517.344 540.624 516.48 541.473 515.616 542.322C511.129 546.729 506.642 551.137 502.292 555.676C496.296 561.932 490.31 568.215 484.654 574.774C479.76 580.448 475.041 586.273 470.321 592.098C468.386 594.485 466.452 596.873 464.505 599.251C464.332 599.462 464.189 599.697 464.046 599.932C463.93 600.124 463.814 600.315 463.681 600.494C462.225 602.459 460.735 604.402 459.245 606.345C455.829 610.799 452.414 615.253 449.408 619.967C448.728 621.033 447.987 622.077 447.242 623.125C444.389 627.142 441.491 631.22 441.887 636.802C442.087 639.615 439.731 641.444 437.196 641.077C433.794 640.585 432.949 642.524 432.088 644.5C431.793 645.178 431.496 645.859 431.094 646.448C429.879 648.228 430.838 649.085 431.802 649.946C432.244 650.341 432.688 650.737 432.921 651.224C432.998 651.384 433.078 651.547 433.158 651.711C433.786 652.993 434.464 654.38 434.366 655.653C434.285 656.701 432.777 658.429 431.842 658.471C431.458 658.489 431.064 658.522 430.667 658.556C428.188 658.765 425.573 658.986 424.367 655.433C424.041 654.473 423.075 653.729 422.11 652.985C421.669 652.645 421.227 652.305 420.847 651.945C420.507 652.346 420.147 652.735 419.787 653.125C418.975 654.003 418.163 654.882 417.582 655.892C417.119 656.697 416.8 657.593 416.482 658.486C416.091 659.586 415.701 660.681 415.046 661.594C412.659 664.918 409.154 664.117 406.094 663.417C405.678 663.321 405.27 663.228 404.874 663.147C402.497 662.662 402.035 663.74 401.513 664.96C401.472 665.055 401.431 665.151 401.389 665.247C401.119 665.861 401.161 666.611 401.205 667.364C401.225 667.715 401.245 668.066 401.233 668.404C401.102 672.183 399.477 673.542 395.656 673.676C392.892 673.773 390.105 674.161 387.398 674.745C385.71 675.109 384.025 675.494 382.34 675.878C373.518 677.89 364.704 679.9 355.47 679.055C354.85 678.999 354.197 679.556 353.519 680.135C353.089 680.502 352.649 680.878 352.2 681.112C351.012 681.731 349.741 682.343 348.441 682.544C347.97 682.617 347.465 682.438 346.956 682.258C346.488 682.092 346.016 681.924 345.562 681.95C345.071 681.978 344.599 682.331 344.126 682.684C343.916 682.842 343.705 682.999 343.493 683.128C343.693 683.246 343.888 683.384 344.084 683.522C344.513 683.826 344.942 684.129 345.414 684.227C346.118 684.374 346.846 684.44 347.572 684.506C348.649 684.604 349.721 684.702 350.702 685.061C358.544 687.927 366.447 687.243 374.308 685.513C382.89 683.624 391.442 681.563 399.924 679.268C400.566 679.094 401.219 678.931 401.875 678.767Z" fill="#2A2932"/>
<path d="M110.797 186.557C109.096 182.986 107.456 179.668 106.183 176.215C105.897 175.44 106.89 174.193 107.294 173.164C107.965 173.76 108.687 174.309 109.3 174.96C114.084 180.033 117.375 186.603 124.372 189.446C128.961 191.31 133.673 192.02 138.508 191.38C139.851 191.202 141.643 190.081 142.184 188.91C145.013 182.791 150.736 180.784 156.235 178.369C156.802 178.12 157.465 177.805 157.786 177.322C160.83 172.751 165.174 172.092 170.077 173.195C170.886 173.377 171.835 173.828 172.267 174.463C172.538 174.859 172.165 176.284 171.735 176.478C167.144 178.546 162.639 181.294 157.801 182.188C152.623 183.146 150.317 183.947 148.656 189.136C146.307 196.471 149.095 203.825 155.668 207.636C163.545 212.201 170.326 211.584 176.893 204.987C180.984 200.877 186.496 198.097 188.878 192.286C189.618 190.481 191.25 189.061 192.298 187.357C193.588 185.261 194.828 183.114 195.854 180.881C200.002 171.843 204.262 162.847 208.048 153.657C209.469 150.207 212.404 146.949 210.827 142.572C210.61 141.969 211.835 140.847 212.392 139.965C212.633 140.848 213.128 141.747 213.075 142.612C212.652 149.491 214.032 156.532 211 163.181C208.352 168.989 205.594 174.784 203.526 180.805C202.408 184.057 202.726 187.785 202.171 191.262C202.059 191.963 200.996 192.93 200.26 193.042C196.842 193.56 195.968 194.795 197.293 197.793C200.822 205.776 204.317 213.775 207.943 221.714C208.971 223.965 210.475 225.997 211.584 228.217C211.791 228.632 211.159 229.467 210.914 230.108C210.356 229.632 209.537 229.265 209.284 228.661C207.762 225.033 205.315 221.889 205.182 217.515C205.125 215.649 201.577 214.123 200.391 212.007C198.234 208.16 196.679 203.978 194.826 199.958C194.218 198.64 193.463 197.39 192.775 196.109C191.609 197.078 190.246 197.889 189.314 199.046C186.626 202.381 184.237 205.96 181.5 209.25C176.807 214.891 170.064 217.381 163.328 218.203C157.25 218.945 151.278 216.109 147.407 211.013C145.07 207.937 143.926 203.968 142.105 200.474C141.713 199.721 140.78 198.908 139.985 198.77C137.03 198.256 134.008 198.137 131.05 197.64C125.964 196.786 121.848 199.641 117.314 200.942C110.495 202.9 104.575 206.457 98.9206 210.61C96.394 212.465 93.7454 214.187 90.9937 215.676C90.4621 215.964 88.7886 215.127 88.3622 214.391C87.74 213.318 87.1425 211.093 87.6242 210.702C90.6518 208.246 93.9569 206.125 97.217 203.964C101.885 200.869 106.807 198.412 112.312 196.999C114.027 196.559 115.973 194.708 116.558 193.057C116.898 192.099 114.835 190.176 113.678 188.84C112.951 188.001 111.898 187.445 110.797 186.557Z" fill="#2A2932"/>
<path d="M363.103 171.284C364.718 171.393 366.32 171.86 367.941 171.941C368.699 171.978 369.494 171.269 370.272 170.899C369.929 170.248 369.667 169.536 369.23 168.955C365.773 164.365 367.238 154.579 372.345 152.014C376.362 149.997 380.875 148.776 385.302 147.82C390.221 146.758 395.315 145.717 400.29 145.892C407.742 146.154 414.823 143.783 422.22 143.833C429.762 143.885 437.359 142.555 444.838 143.109C452.997 143.713 461.083 145.615 469.136 147.27C475.727 148.625 482.258 150.32 488.745 152.123C491.562 152.906 494.192 154.356 496.921 155.468C502.951 157.923 509.104 160.114 514.986 162.884C518.951 164.751 522.47 163.951 525.472 161.706C528.48 159.457 531.943 159.693 534.418 160.666C541.783 163.562 549.016 167.271 552.318 175.197C553.729 178.583 554.192 182.369 555.014 185.989C555.102 186.378 554.709 186.876 554.539 187.323C554.172 187.078 553.614 186.916 553.465 186.575C550.739 180.337 546.525 175.334 541.034 171.358C539.198 170.028 537.565 168.275 535.544 167.389C533.987 166.707 531.672 166.447 530.224 167.128C527.95 168.197 526.552 170.052 528.475 173.071C529.676 174.956 530.07 177.515 530.255 179.818C530.346 180.933 529.287 182.309 528.4 183.234C528.131 183.514 526.56 182.865 525.833 182.313C524.789 181.521 523.39 180.554 523.151 179.444C521.621 172.348 515.234 170.959 510.106 168.419C502.855 164.828 495.399 161.553 487.794 158.795C475.735 154.422 463.315 151.338 450.466 150.239C442.633 149.569 434.821 148.372 426.98 148.184C422.226 148.071 417.453 149.592 412.658 150.088C407.336 150.639 401.971 150.77 396.643 151.273C394.958 151.432 393.174 151.918 391.706 152.738C386.725 155.518 380.115 154.201 375.995 159.181C374.469 161.025 372.917 162.367 375.171 164.851C376.349 166.149 376.83 168.121 377.464 169.848C377.686 170.451 377.685 171.649 377.34 171.866C374.157 173.864 375.748 175.43 377.675 177.013C378.754 177.899 380.042 178.616 380.874 179.69C381.45 180.433 381.927 182.074 381.526 182.57C380.83 183.432 378.799 184.462 378.406 184.133C373.332 179.883 366.645 177.554 363.103 171.284Z" fill="#2A2932"/>
<path d="M209.828 568.445C210.236 563.782 211.619 562.965 214.765 565.431C216.803 567.027 218.605 568.971 220.311 570.934C224.647 575.922 228.885 580.996 233.127 586.064C234.022 587.133 234.921 588.244 235.557 589.471C237.011 592.276 238.484 594.539 241.867 595.892C244.166 596.811 245.723 600.046 247.188 602.498C250.923 608.75 254.382 615.193 259.974 620.062C266.833 626.034 273.746 631.946 280.696 637.812C285.267 641.67 289.784 645.627 294.635 649.105C297.494 651.155 300.906 652.48 304.168 653.904C307.18 655.219 308.715 658.734 307.992 661.831C307.126 665.539 304.907 664.951 302.885 663.595C295.823 658.857 288.635 654.236 282.022 648.915C272.928 641.597 264.311 633.686 255.503 626.013C254.805 625.405 254.111 624.743 253.591 623.986C247.751 615.489 239.304 609.939 231.085 604.166C228.467 602.327 227.614 602.871 226.982 605.828C226.875 606.331 226.306 607.069 225.901 607.102C225.215 607.158 224.274 606.952 223.816 606.486C220.4 603.014 217.076 599.451 213.724 595.916C213.267 595.434 212.661 595.026 212.377 594.457C210.774 591.252 211.545 590.095 215.179 590.136C215.976 590.145 216.934 590.472 217.54 590.143C219.403 589.13 221.131 587.869 222.912 586.705C222.086 585.575 221.261 584.445 220.433 583.316C216.895 578.492 213.356 573.668 209.828 568.445Z" fill="#2A2932"/>
<path d="M157.378 235.657C156.359 238.567 155.281 241.35 153.819 243.914C153.524 244.43 151.687 244.401 150.709 244.114C149.199 243.672 147.867 242.648 146.37 242.127C143.463 241.115 141.279 242.869 140.89 245.942C140.546 248.66 139.845 251.353 139.053 253.982C138.876 254.57 137.581 255.286 136.95 255.164C136.016 254.983 134.847 254.295 134.439 253.488C133.674 251.976 133.407 250.216 132.89 248.573C131.523 244.23 127.691 242.822 123.531 244.736C120.872 245.96 117.958 247.282 115.136 247.334C111.72 247.396 111.986 249.889 111.359 251.618C110.628 253.634 112.792 253.852 113.847 254.911C116.333 257.404 118.237 260.723 119.575 264.031C120.495 266.305 118.134 267.69 115.628 266.133C110.538 262.974 105.764 259.856 104.568 252.829C103.864 248.699 100.232 245.109 98.1192 241.168C96.0385 237.287 92.9891 235.074 89.1304 232.786C85.4996 230.633 83.4202 225.572 81.2433 221.48C80.7499 220.552 82.6727 218.34 83.4833 216.718C84.305 217.601 85.0958 218.516 85.9541 219.362C88.8253 222.191 91.9233 224.821 94.5489 227.861C97.0921 230.805 99.4613 233.99 101.369 237.373C104.731 243.336 108.475 245.049 114.746 242.177C120.014 239.763 125.099 237.881 131.006 239.867C133.421 240.679 135.833 240.015 137.648 237.729C138.992 236.038 140.574 235.544 143.151 236.062C146.357 236.705 150.054 237.446 153.224 234.759C153.878 234.205 155.83 235.181 157.378 235.657Z" fill="#2A2932"/>
<path d="M136.465 136.135C140.79 133.329 144.93 130.746 149.027 128.096C153.702 125.071 153.277 124.569 148.927 120.582C144.679 116.687 141.265 111.866 137.595 107.363C135.721 105.062 133.342 102.992 133.304 99.6223C133.291 98.4887 132.801 97.304 133.02 96.2434C133.176 95.4815 134.147 94.8869 134.754 94.2177C135.213 94.8123 135.691 95.3931 136.127 96.0039C138.482 99.3019 140.897 102.56 143.146 105.929C144.378 107.776 145.089 110.002 146.464 111.714C147.789 113.365 149.51 114.83 151.328 115.928C156.334 118.954 161.426 121.832 167.543 122.136C168.038 122.161 169.024 124.402 168.732 125.254C168.319 126.457 166.803 128.291 165.975 128.184C159.044 127.289 154.625 132.059 149.757 135.349C141.038 141.242 132.409 147.357 124.346 154.102C119.685 158.001 115.294 162.639 113.347 168.863C113.235 169.221 110.842 169.317 110.803 169.177C110.271 167.261 109.152 164.953 109.782 163.387C111.01 160.335 112.789 157.202 115.155 154.966C121.972 148.524 129.196 142.511 136.465 136.135Z" fill="#2A2932"/>
<path d="M489.281 203.312C487.075 204.787 485.532 205.323 483.183 203.326C481.082 201.541 480.01 204.396 479.046 205.995C478.186 207.42 477.419 208.902 476.61 210.358C475.382 209.502 474.017 208.784 472.962 207.75C471.885 206.696 471.15 205.302 470.193 204.116C469.619 203.405 468.694 202.133 468.289 202.261C464.257 203.534 464.076 199.949 462.922 197.968C460.501 193.814 458.124 189.586 456.313 185.15C455.616 183.444 455.991 180.845 456.818 179.097C457.724 177.182 459.581 177.35 460.57 179.513C462.868 184.537 465.096 189.593 467.374 194.626C467.68 195.302 468.118 195.917 468.495 196.561C468.663 195.919 468.745 195.234 469.029 194.649C469.242 194.212 469.717 193.903 470.076 193.537C470.501 193.957 471.033 194.313 471.334 194.808C474.192 199.515 477.831 200.422 482.779 197.861C485.828 196.283 488.912 194.507 492.196 193.726C495.216 193.008 498.533 193.37 501.696 193.588C502.266 193.628 503.373 195.774 503.124 196.1C502.054 197.501 500.754 198.991 499.197 199.698C496.083 201.113 491.925 199.634 489.281 203.312Z" fill="#2A2932"/>
<path d="M510.427 211.048C511.262 211.246 511.892 211.637 512.523 212.029C510.696 214.208 513.144 215.919 513.136 217.794C513.121 221.569 512.391 225.336 512.196 229.119C512.106 230.856 512.797 232.63 512.744 234.375C512.686 236.255 512.234 238.135 511.829 239.987C511.619 240.949 511.139 241.852 510.781 242.781C510.611 241.703 510.356 240.63 510.287 239.545C510.069 236.113 509.979 232.671 509.69 229.246C509.64 228.651 508.862 228.117 508.421 227.555C508.062 228.211 507.385 228.873 507.398 229.522C507.461 232.736 507.862 235.951 507.788 239.157C507.767 240.07 506.549 240.955 505.88 241.853C505.48 241.122 504.678 240.35 504.748 239.666C505.163 235.557 506.175 231.474 506.219 227.374C506.263 223.164 505.692 218.894 504.902 214.743C504.093 210.487 503.507 206.356 505.703 202.404C506.054 201.772 507.616 201.069 507.941 201.31C508.805 201.952 511.215 201.951 509.45 204.353C508.264 205.967 507.747 208.176 507.319 210.201C507.09 211.284 507.683 212.541 507.905 213.719C508.678 212.893 509.45 212.068 510.427 211.048Z" fill="#2A2932"/>
<path d="M343.78 391.633C346.891 393.557 347.042 395.747 344.239 396.266C340.883 396.888 337.272 396.432 333.822 396.02C333.032 395.926 332.25 394.179 331.817 393.057C331.155 391.345 330.739 389.528 330.338 387.728C330.081 386.575 330.038 385.375 329.898 384.195C331.326 384.531 332.956 384.537 334.142 385.265C337.323 387.219 340.314 389.482 343.78 391.633Z" fill="#2A2932"/>
<path d="M212.013 55.5498C213.687 60.1676 214.955 64.668 216.73 68.9586C217.682 71.2582 216.588 73.484 215.341 73.4882C213.911 73.4931 211.702 71.5755 211.202 70.0451C210.203 66.9893 210.297 63.5951 209.631 60.4049C209.237 58.5157 208.21 56.7648 207.555 54.9209C207.245 54.05 206.903 53.0671 207.045 52.2131C207.113 51.8073 208.51 51.1594 208.9 51.3701C209.644 51.7712 210.13 52.6873 210.663 53.4329C211.094 54.0373 211.437 54.7053 212.013 55.5498Z" fill="#2A2932"/>
<path d="M593.5 275.338C591.107 273.772 589.076 272.257 587.173 270.597C586.975 270.425 587.405 268.93 587.761 268.831C589.205 268.429 591.014 267.709 592.181 268.233C596.548 270.196 600.721 272.594 604.947 274.865C605.204 275.004 605.293 275.456 605.46 275.761C604.942 275.978 604.405 276.418 603.91 276.376C600.568 276.091 597.235 275.703 593.5 275.338Z" fill="#2A2932"/>
<path d="M525.186 322.328C525.522 323.107 525.641 323.784 525.761 324.462C523.574 323.721 523.931 326.421 522.884 327.106C520.778 328.485 518.295 329.256 516.088 330.486C515.075 331.051 514.459 332.289 513.46 332.887C512.384 333.531 511.098 333.842 509.853 334.183C509.206 334.36 508.448 334.287 507.74 334.327C508.248 333.786 508.708 333.175 509.274 332.717C511.065 331.267 512.93 329.922 514.679 328.415C514.983 328.153 514.864 327.299 514.941 326.719C514.384 326.657 513.655 326.329 513.301 326.579C511.548 327.818 509.976 329.342 508.155 330.462C507.636 330.78 506.494 330.077 505.637 329.843C505.83 329.236 505.831 328.273 506.248 328.08C508.753 326.916 511.563 326.266 513.865 324.791C516.229 323.277 518.296 321.219 520.182 319.022C522.115 316.769 524.097 314.751 527.466 315.149C528.005 315.213 529.231 316.274 529.27 316.638C529.375 317.604 530.662 319.641 528.385 319.035C526.854 318.628 525.35 319.005 523.996 319.39C523.272 319.595 522.891 320.56 522.355 321.182C523.226 321.531 524.097 321.879 525.186 322.328Z" fill="#2A2932"/>
<path d="M493.714 344.255C493.869 344.862 493.975 345.592 493.718 345.837C490.79 348.628 487.897 351.475 484.794 354.019C483.57 355.024 482.289 355.739 481.833 357.698C481.488 359.182 480.59 359.832 478.618 358.847C477.398 358.238 476.088 359.095 474.797 359.23C474.432 359.268 473.989 359.083 473.581 359.001C473.54 358.438 473.269 357.541 473.493 357.364C475.891 355.463 478.406 353.732 480.809 351.838C482.545 350.468 484.268 349.059 485.803 347.422C487.834 345.254 489.765 343.015 493.714 344.255Z" fill="#2A2932"/>
<path d="M500.97 334.715C500.12 336.088 498.068 336.424 500.176 339.516C500.365 339.794 499.351 341.143 498.732 341.786C498.634 341.889 497.668 340.891 497.109 340.39C496.849 340.156 496.604 339.891 496.352 339.64C496.332 339.969 496.323 340.304 496.29 340.626C496.227 341.235 496.15 341.838 496.079 342.443C495.855 341.829 495.684 341.195 495.387 340.609C495.224 340.287 494.739 339.778 494.591 339.812C493.497 340.058 492.483 340.494 491.372 340.692C491.085 340.743 490.438 340.243 490.165 339.837C490.001 339.594 490.099 338.821 490.323 338.663C494.276 335.887 498.24 333.127 502.277 330.483C502.853 330.106 503.819 330.35 504.605 330.307C504.203 331.051 503.904 331.923 503.374 332.506C502.671 333.28 501.786 333.83 500.97 334.715Z" fill="#2A2932"/>
<path d="M484.73 342.246C485.042 341.822 485.321 341.591 485.652 341.464C486.58 341.108 487.53 340.795 488.471 340.465C487.998 341.444 487.577 342.475 487.029 343.376C486.797 343.756 486.333 343.936 485.911 344.074C485.151 344.323 484.343 344.473 483.555 344.665C483.943 343.938 484.331 343.212 484.73 342.246Z" fill="#2A2932"/>
<path d="M316.672 422.246C317.663 424.316 318.649 426.585 319.635 428.854C319.129 428.867 318.209 428.991 318.179 428.878C317.612 426.751 317.15 424.595 316.672 422.246Z" fill="#2A2932"/>
<path d="M584.075 148.2C584.197 149.509 584.33 150.42 584.462 151.331C584.044 151.167 583.368 151.106 583.251 150.82C582.717 149.5 582.34 148.118 581.906 146.758C582.633 147.105 583.359 147.453 584.075 148.2Z" fill="#2A2932"/>
<path d="M590.117 161.91C590.743 163.257 590.97 164.593 591.197 165.929C590.704 164.586 590.211 163.243 590.117 161.91Z" fill="#2A2932"/>
<path fill-rule="evenodd" clip-rule="evenodd" d="M367.579 419.473C367.279 419.754 366.988 420.026 366.832 420.303C363.72 418.482 364.111 415.698 364.461 413.216C364.562 412.494 364.66 411.797 364.667 411.158C364.722 406.105 365.271 401.058 365.82 396.01C366.082 393.599 366.345 391.187 366.553 388.773C366.6 388.232 366.08 387.469 365.598 387.123C365.327 386.928 364.288 387.218 364.115 387.556C361.996 391.69 358.202 393.336 354.413 394.98C352.67 395.736 350.927 396.492 349.35 397.49C348.85 397.806 348.099 397.725 347.347 397.644C347 397.607 346.652 397.569 346.33 397.571C346.52 397.17 346.684 396.685 346.848 396.199C347.203 395.149 347.558 394.099 348.181 393.903C351.877 392.742 354.431 390.171 356.98 387.606C358.365 386.212 359.748 384.82 361.312 383.657C363.373 382.123 364.509 379.523 361.045 377.64C358.922 376.485 359.01 375.177 360.95 373.863C361.825 373.27 362.704 372.682 363.584 372.095C365.767 370.635 367.95 369.176 370.073 367.634C372.956 365.541 375.767 363.34 378.511 361.068C378.812 360.818 379.117 360.57 379.423 360.321C381.231 358.848 383.07 357.35 384.339 355.489C384.482 355.279 384.982 355.084 385.55 354.863C387.148 354.241 389.275 353.414 385.436 351.475C385.421 351.467 385.723 350.403 386.095 350.133C386.648 349.73 387.194 349.309 387.741 348.887C389.366 347.635 390.999 346.376 392.829 345.594C395.642 344.391 398.002 345.661 398.69 348.769C399.113 350.681 399.324 352.788 398.979 354.69C398.093 359.582 398.157 359.841 403.017 359.831C404.134 359.829 405.259 359.766 406.365 359.616C408.338 359.349 410.309 359.066 412.28 358.782C414.929 358.401 417.578 358.02 420.232 357.679C422.514 357.385 424.801 357.127 427.087 356.868C430.791 356.449 434.495 356.03 438.176 355.465C441.339 354.979 444.482 354.365 447.626 353.751C450.413 353.206 453.2 352.662 456.002 352.207C460.761 351.433 465.56 350.893 470.353 350.354L470.972 350.284C471.451 350.23 471.949 350.351 472.448 350.471C472.931 350.588 473.415 350.705 473.883 350.664C474.424 350.617 475.006 350.66 475.592 350.704C477.412 350.841 479.265 350.981 479.98 348.392C480.789 345.466 478.591 344.194 476.523 343.236C475.379 342.706 474.166 342.324 472.953 341.942C471.744 341.562 470.534 341.181 469.392 340.654C467.024 339.558 465.023 337.997 468.277 335.541C468.733 335.197 469.187 334.848 469.641 334.498C471.438 333.115 473.239 331.729 475.201 330.641C475.901 330.253 476.882 330.372 477.863 330.491C478.309 330.545 478.755 330.599 479.175 330.606C478.944 330.869 478.713 331.133 478.481 331.396C477.899 332.061 477.316 332.725 476.735 333.391C476.655 333.483 476.573 333.575 476.491 333.667C476.24 333.948 475.988 334.229 475.773 334.535C475.472 334.962 475.194 335.406 474.916 335.85C474.798 336.038 474.68 336.227 474.56 336.415C474.79 336.448 475.02 336.487 475.25 336.527C475.75 336.613 476.25 336.698 476.752 336.718C477.873 336.761 478.994 336.795 480.114 336.829C482.315 336.896 484.514 336.962 486.71 337.101C487.077 337.125 487.702 338.422 487.684 338.436C485.582 340.023 485.812 342.058 486.041 344.078C486.131 344.874 486.221 345.668 486.167 346.43C486.115 347.173 486.271 347.93 486.426 348.687C486.497 349.032 486.567 349.376 486.618 349.72C490.637 354.799 494.627 400.339 496.119 422.473C494.979 424.366 493.92 426.346 493.163 428.416C492.91 429.107 492.85 429.876 492.789 430.641C492.721 431.51 492.653 432.373 492.305 433.112C488.949 440.239 485.573 447.37 481.829 454.296C480.821 456.161 479.343 457.773 477.867 459.385C477.21 460.102 476.553 460.818 475.938 461.557C472.157 466.096 467.078 468.792 462.01 471.482C461.598 471.701 461.186 471.92 460.775 472.14C460.084 472.509 459.395 472.895 458.704 473.282C456.272 474.646 453.819 476.02 451.202 476.693C447.28 477.7 443.213 478.173 439.159 478.644C438.184 478.758 437.209 478.871 436.238 478.991C435.26 479.113 434.273 479.266 433.284 479.42C430.266 479.888 427.225 480.36 424.327 479.944C418.32 479.082 412.38 477.733 406.444 476.385C404.53 475.951 402.618 475.517 400.703 475.099C390.667 472.908 382.589 467.291 375.434 460.228C374.498 459.303 373.727 458.209 372.958 457.114C372.159 455.98 371.362 454.846 370.379 453.903C367.083 450.738 366.495 446.967 367.04 442.767C367.088 442.399 367.226 442.042 367.364 441.686C367.428 441.521 367.492 441.356 367.547 441.189C367.737 441.256 367.949 441.305 368.161 441.354C368.618 441.46 369.076 441.565 369.305 441.853C372.218 445.504 375.131 449.162 377.875 452.941C382.814 459.742 388.997 465.214 396.934 467.79C402.125 469.476 407.536 470.495 412.943 471.513C414.977 471.896 417.01 472.278 419.031 472.697C428.573 474.671 437.883 473.915 447.114 470.66C454.105 468.195 460.983 465.683 466.389 460.358C466.63 460.121 466.87 459.884 467.111 459.648C469.251 457.545 471.397 455.436 473.327 453.151C482.818 441.913 488.699 429.157 488.602 414.21C488.546 405.601 488.396 397.003 486.573 388.456C485.982 385.683 485.708 382.847 485.433 380.007C485.057 376.127 484.681 372.24 483.495 368.495C481.656 362.687 478.825 361.131 473.066 362.069C472.014 362.24 470.867 361.963 469.759 361.695C469.524 361.639 469.291 361.583 469.061 361.531C468.239 361.347 467.431 361.148 466.63 360.95C462.7 359.978 458.917 359.044 454.278 360.156C446.58 362.004 438.654 362.91 430.73 363.816C427.613 364.172 424.497 364.528 421.394 364.942C419.315 365.219 417.228 365.455 415.142 365.692C411.479 366.106 407.817 366.521 404.194 367.157C396.242 368.552 388.326 370.187 380.46 372.003C377.465 372.695 374.134 379.043 375.63 381.254C377.32 383.754 376.533 385.617 375.42 387.739C375.002 388.536 374.533 389.32 374.063 390.105C373.019 391.849 371.974 393.594 371.495 395.482C370.34 400.035 369.481 404.663 368.623 409.291C368.287 411.105 367.95 412.918 367.596 414.727C367.567 414.873 367.526 415.045 367.484 415.223C367.352 415.776 367.207 416.387 367.368 416.49C369.39 417.777 368.446 418.661 367.579 419.473ZM393.08 358.116L389.325 358.699C389.047 359.231 388.743 359.714 388.462 360.16C387.878 361.089 387.391 361.863 387.433 362.607C387.469 363.247 388.156 363.851 388.842 364.454C389.146 364.722 389.45 364.989 389.698 365.259C389.81 365.048 389.922 364.838 390.034 364.627C390.287 364.152 390.54 363.677 390.791 363.201C390.912 362.97 391.037 362.739 391.162 362.509C391.474 361.932 391.786 361.355 392.055 360.759C392.324 360.16 392.551 359.542 392.778 358.925C392.878 358.654 392.977 358.384 393.08 358.116Z" fill="#2A2932"/>
<path fill-rule="evenodd" clip-rule="evenodd" d="M520.286 454.923C520.625 454.554 521.981 454.569 522.381 454.938C522.945 455.459 523.489 456.601 523.295 457.256C520.447 466.875 519.318 476.716 518.827 486.706C518.642 490.469 518.195 494.218 517.748 497.969C517.411 500.8 517.073 503.633 516.848 506.473C516.111 515.768 515.527 525.077 515.039 534.388C514.894 537.162 515.032 539.955 515.17 542.741C515.199 543.312 515.227 543.884 515.253 544.455C515.387 547.409 517.015 547.08 518.791 545.839C521.842 543.708 522.308 540.283 522.403 537.059C522.472 534.707 522.314 532.349 522.157 529.99C522.001 527.667 521.846 525.343 521.908 523.026C522.052 517.554 522.39 512.087 522.729 506.62C522.874 504.271 523.019 501.92 523.149 499.57L523.286 497.089C523.555 492.243 523.823 487.39 524.079 482.543C524.179 480.645 524.269 478.746 524.358 476.847C524.515 473.524 524.673 470.2 524.885 466.88C524.95 465.851 525.014 464.822 525.077 463.792C525.384 458.795 525.691 453.794 526.283 448.829C526.603 446.147 527.242 443.504 527.881 440.86C528.17 439.662 528.46 438.464 528.72 437.262C528.742 437.159 528.777 437.048 528.812 436.935C528.9 436.651 528.991 436.361 528.89 436.182C526.56 432.036 527.734 428.082 528.902 424.152C529.223 423.071 529.543 421.992 529.791 420.91C530.555 417.565 531.583 414.257 532.8 411.048C533.458 409.315 534.389 407.147 535.841 406.351C537.072 405.677 538.261 404.915 539.452 404.153C542.966 401.902 546.49 399.645 551.124 399.614C554.209 399.593 555.198 394.369 552.522 391.472C551.323 390.173 549.899 389.087 548.473 387.998C547.262 387.075 546.05 386.15 544.973 385.093C543.856 383.999 542.478 381.778 542.904 380.803C543.712 378.953 545.597 377.457 547.292 376.146C547.942 375.642 548.734 375.301 549.52 374.962C550.466 374.554 551.405 374.15 552.08 373.47C553.786 371.753 552.817 369.743 550.474 369.324L550.448 369.319C549.494 369.149 548.457 368.963 547.67 368.456C542.08 364.856 542.016 364.8 545.222 355.295C547.125 349.652 544.678 345.043 542.262 340.492C541.987 339.973 541.711 339.454 541.443 338.935C540.978 338.034 538.207 337.542 536.965 338.035C535.871 338.468 535.072 339.71 534.309 340.897C534.106 341.214 533.905 341.527 533.701 341.819C533.561 342.02 534.146 343.002 534.604 343.301C539.927 346.77 541.726 352.672 539.41 358.903C539.373 359.004 539.336 359.106 539.298 359.208C538.674 360.914 538.011 362.724 535.834 361.643C535.466 361.46 535.022 361.316 534.563 361.166C532.844 360.606 530.91 359.976 531.924 357.016C532.137 356.396 531.858 355.546 531.624 354.834L531.588 354.724L531.584 354.709C529.586 348.592 527.608 342.537 528.085 335.888C528.234 333.811 527.928 331.707 527.621 329.597C527.439 328.345 527.256 327.09 527.168 325.838C527.008 323.546 526.895 321.25 526.782 318.954C524.972 316.641 522.155 319.775 520.972 321.632C520.692 325.192 520.412 328.747 520.786 332.238C521.565 339.502 523.069 346.692 524.571 353.876C525.061 356.22 525.551 358.564 526.016 360.91C526.24 362.041 527.043 363.673 527.931 363.952C531.949 365.216 531.951 368.185 531.953 371.326C531.953 371.555 531.954 371.785 531.955 372.015C531.963 372.963 532.095 373.915 532.228 374.865C532.398 376.082 532.567 377.295 532.47 378.491C532.382 379.581 531.289 381.104 530.291 381.483C529.291 381.862 528.129 381.814 526.967 381.765C526.471 381.745 525.975 381.724 525.491 381.737C528.416 387.516 523.239 432.936 520.286 454.923ZM529.357 401.599C529.415 401.253 529.442 400.883 529.468 400.513C529.527 399.679 529.586 398.844 530.009 398.284C530.534 397.589 531.367 397.126 532.2 396.663C532.56 396.463 532.92 396.263 533.255 396.044C533.318 396.326 533.428 396.649 533.538 396.972C533.779 397.678 534.019 398.383 533.773 398.665C532.657 399.945 531.15 400.884 529.357 401.599Z" fill="#2A2932"/>
</svg>
